<svg id="svg" version="1.1" xmlns="http://www.w3.org/2000/svg" xmlns:xlink="http://www.w3.org/1999/xlink" width="400" height="280" viewBox="0, 0, 400,280"><g id="svgg"><path id="path0" d="M58.832 7.822 C 58.820 12.125,58.922 15.714,59.059 15.799 C 59.196 15.884,59.248 16.271,59.173 16.660 C 59.091 17.092,59.167 17.367,59.368 17.367 C 59.549 17.367,59.639 17.461,59.568 17.577 C 59.498 17.693,60.120 17.825,60.952 17.870 C 62.166 17.937,62.465 17.868,62.465 17.520 C 62.465 17.282,62.654 17.087,62.885 17.087 C 63.116 17.087,63.305 17.276,63.305 17.507 C 63.305 17.840,63.710 17.927,65.266 17.927 C 66.822 17.927,67.227 17.840,67.227 17.507 C 67.227 17.276,67.416 17.087,67.647 17.087 C 67.878 17.087,68.067 17.276,68.067 17.507 C 68.067 18.089,69.178 18.040,69.647 17.437 C 70.010 16.970,70.046 16.970,70.409 17.437 C 70.951 18.134,73.867 18.134,74.409 17.437 C 74.772 16.970,74.808 16.970,75.171 17.437 C 75.638 18.038,75.910 18.064,75.910 17.507 C 75.910 16.961,76.720 16.961,76.930 17.507 C 77.176 18.150,80.341 18.093,80.851 17.437 C 81.214 16.970,81.251 16.970,81.614 17.437 C 82.156 18.135,109.524 18.203,109.524 17.507 C 109.524 17.276,109.713 17.087,109.944 17.087 C 110.175 17.087,110.364 17.276,110.364 17.507 C 110.364 17.787,110.644 17.927,111.204 17.927 C 111.765 17.927,112.045 17.787,112.045 17.507 C 112.045 17.276,112.234 17.087,112.465 17.087 C 112.696 17.087,112.885 17.276,112.885 17.507 C 112.885 17.840,113.290 17.927,114.846 17.927 C 116.402 17.927,116.807 17.840,116.807 17.507 C 116.807 17.276,116.996 17.087,117.227 17.087 C 117.458 17.087,117.647 17.289,117.647 17.536 C 117.647 17.913,117.938 17.967,119.467 17.875 L 121.287 17.764 121.358 89.484 C 121.414 146.681,121.499 161.190,121.779 161.134 C 122.092 161.072,122.179 161.250,122.105 161.803 C 122.092 161.902,122.249 162.089,122.455 162.219 C 123.003 162.566,183.678 162.534,183.893 162.186 C 184.007 162.002,173.640 161.883,153.330 161.836 C 129.043 161.780,122.571 161.691,122.479 161.415 C 122.290 160.847,183.686 160.925,184.437 161.494 C 184.736 161.720,185.178 161.903,185.418 161.900 C 185.742 161.897,185.764 161.839,185.503 161.673 C 185.151 161.450,184.943 1.689,185.294 1.121 C 186.018 -0.052,188.935 0.000,121.974 0.000 L 58.855 0.000 58.832 7.822 M214.285 0.490 C 214.284 0.760,214.285 36.873,214.286 80.742 C 214.287 124.611,214.193 160.504,214.077 160.504 C 213.961 160.504,213.866 160.805,213.866 161.173 C 213.866 161.716,213.986 161.821,214.502 161.727 C 214.896 161.655,215.201 161.774,215.302 162.038 C 215.502 162.557,276.471 162.704,276.471 162.185 C 276.471 162.000,266.099 161.905,245.915 161.905 C 221.595 161.905,215.383 161.833,215.476 161.555 C 215.655 161.017,276.644 161.043,276.532 161.581 C 276.489 161.788,276.615 161.904,276.812 161.839 C 277.009 161.774,277.211 161.445,277.261 161.108 C 277.310 160.772,277.468 160.568,277.611 160.657 C 277.771 160.755,277.871 133.237,277.871 89.302 L 277.871 17.787 284.762 17.871 C 291.126 17.949,291.684 17.917,292.046 17.451 C 292.418 16.972,292.456 16.971,292.818 17.437 C 293.346 18.117,299.160 18.181,299.160 17.507 C 299.160 17.276,299.349 17.087,299.580 17.087 C 299.811 17.087,300.000 17.276,300.000 17.507 C 300.000 17.852,300.498 17.927,302.801 17.927 C 305.104 17.927,305.602 17.852,305.602 17.507 C 305.602 17.276,305.791 17.087,306.022 17.087 C 306.254 17.087,306.443 17.276,306.443 17.507 C 306.443 17.856,306.987 17.927,309.664 17.927 C 312.340 17.927,312.885 17.856,312.885 17.507 C 312.885 16.963,313.415 16.963,313.624 17.507 C 313.859 18.118,317.647 18.118,317.647 17.507 C 317.647 17.276,317.836 17.087,318.067 17.087 C 318.298 17.087,318.487 17.276,318.487 17.507 C 318.487 17.852,318.985 17.927,321.289 17.927 C 323.592 17.927,324.090 17.852,324.090 17.507 C 324.090 16.963,324.620 16.963,324.829 17.507 C 325.042 18.063,338.608 18.143,339.160 17.591 C 339.421 17.330,339.500 17.345,339.514 17.661 C 339.523 17.884,339.668 17.752,339.835 17.367 C 340.285 16.331,340.369 15.686,340.054 15.686 C 339.877 15.686,339.776 13.041,339.776 8.403 C 339.776 3.735,339.876 1.120,340.056 1.120 C 340.210 1.120,340.336 0.868,340.336 0.560 C 340.336 0.002,340.149 0.000,277.311 0.000 C 217.474 0.000,214.286 0.025,214.285 0.490 M277.591 17.227 C 277.591 17.458,277.465 17.647,277.311 17.647 C 277.157 17.647,277.031 17.458,277.031 17.227 C 277.031 16.996,277.157 16.807,277.311 16.807 C 277.465 16.807,277.591 16.996,277.591 17.227 M120.586 89.216 C 120.586 128.501,120.619 144.531,120.658 124.837 C 120.698 105.144,120.698 73.001,120.658 53.409 C 120.619 33.817,120.586 49.930,120.586 89.216 M185.570 122.829 C 185.570 143.627,185.604 152.177,185.644 141.829 C 185.685 131.480,185.685 114.463,185.644 104.013 C 185.604 93.564,185.570 102.031,185.570 122.829 M137.864 161.555 C 146.287 161.596,160.152 161.596,168.676 161.555 C 177.200 161.513,170.308 161.480,153.361 161.480 C 136.415 161.480,129.441 161.513,137.864 161.555 M230.904 161.555 C 239.351 161.596,253.090 161.596,261.436 161.555 C 269.782 161.513,262.871 161.480,246.078 161.480 C 229.286 161.480,222.457 161.513,230.904 161.555 M59.515 220.378 C 59.404 220.879,59.203 221.289,59.069 221.289 C 58.771 221.289,58.737 228.672,59.034 228.968 C 59.149 229.084,59.244 229.315,59.244 229.482 C 59.244 229.649,59.419 229.844,59.633 229.915 C 59.869 229.994,59.945 229.920,59.826 229.728 C 59.683 229.496,61.150 229.428,65.320 229.472 L 71.008 229.533 65.686 229.692 L 60.364 229.851 65.602 229.911 C 70.245 229.965,70.876 230.028,71.154 230.462 C 71.428 230.891,71.450 230.871,71.330 230.306 C 71.241 229.890,71.309 229.699,71.521 229.769 C 71.767 229.851,71.866 235.965,71.920 254.402 L 71.992 278.925 71.401 279.080 C 71.074 279.165,70.864 279.400,70.932 279.603 C 71.140 280.227,100.840 280.283,100.840 279.660 C 100.840 279.294,100.921 279.270,101.244 279.538 C 101.951 280.125,101.986 278.749,101.902 253.711 L 101.821 229.412 107.003 229.472 L 112.185 229.533 107.143 229.698 L 102.101 229.864 107.507 229.886 C 110.481 229.898,112.849 229.842,112.769 229.763 C 112.519 229.513,113.157 228.588,113.520 228.676 C 113.710 228.722,113.771 228.707,113.655 228.642 C 113.540 228.578,113.444 226.865,113.442 224.837 C 113.437 220.411,113.320 219.785,112.574 220.185 C 112.149 220.412,112.040 220.370,112.023 219.968 C 112.010 219.674,111.942 219.612,111.859 219.818 C 111.748 220.094,106.283 220.168,85.854 220.168 C 65.423 220.168,59.962 220.095,59.853 219.818 C 59.778 219.625,59.626 219.877,59.515 220.378 M251.961 219.885 L 237.675 220.023 251.961 220.173 L 266.246 220.322 251.552 220.371 C 242.125 220.402,236.737 220.319,236.521 220.140 C 236.296 219.953,236.124 219.958,236.003 220.154 C 235.842 220.414,236.417 220.587,237.066 220.474 C 237.193 220.452,237.215 220.566,237.116 220.726 C 237.017 220.886,236.797 220.932,236.628 220.827 C 236.424 220.701,236.385 220.809,236.513 221.142 C 236.679 221.573,236.643 221.594,236.274 221.288 C 236.036 221.090,235.760 221.010,235.661 221.109 C 235.562 221.208,235.628 221.289,235.808 221.289 C 236.054 221.289,236.151 228.400,236.202 250.210 L 236.271 279.132 236.415 250.560 L 236.559 221.989 236.627 250.770 C 236.687 276.197,236.646 279.552,236.275 279.552 C 236.043 279.552,235.854 279.675,235.854 279.825 C 235.854 280.209,279.173 280.219,279.410 279.835 C 279.506 279.679,279.426 279.552,279.232 279.552 C 278.958 279.552,278.954 279.477,279.216 279.216 C 279.757 278.674,279.682 270.620,279.133 270.410 C 278.903 270.322,278.793 270.123,278.888 269.969 C 278.997 269.792,278.827 269.762,278.431 269.888 C 278.005 270.023,277.862 269.989,277.991 269.781 C 278.110 269.589,278.018 269.536,277.746 269.641 C 277.507 269.733,277.311 269.920,277.311 270.058 C 277.311 270.196,275.210 270.308,272.642 270.308 C 270.075 270.308,268.058 270.224,268.161 270.121 C 268.264 270.018,268.161 269.726,267.932 269.474 C 267.481 268.975,267.125 220.514,267.575 220.965 C 267.690 221.079,267.817 232.008,267.857 245.251 L 267.930 269.328 267.999 245.184 L 268.067 221.040 267.437 220.599 C 267.090 220.356,266.870 220.077,266.947 219.979 C 267.143 219.730,267.733 219.734,251.961 219.885 M312.136 219.818 L 298.082 219.893 297.476 220.873 C 297.143 221.411,296.767 221.788,296.640 221.710 C 296.036 221.336,295.571 221.897,295.806 222.715 C 295.997 223.384,295.931 223.645,295.456 224.087 C 294.933 224.575,294.920 224.653,295.334 224.812 C 295.589 224.910,295.798 225.116,295.798 225.270 C 295.798 225.424,295.595 225.472,295.347 225.377 C 295.024 225.253,294.942 225.324,295.058 225.627 C 295.148 225.861,295.067 226.054,294.879 226.059 C 294.681 226.064,294.744 226.224,295.028 226.440 C 295.668 226.926,295.647 227.236,294.943 227.676 C 294.549 227.922,294.422 228.207,294.541 228.581 C 294.636 228.881,294.614 229.285,294.491 229.479 C 294.368 229.673,294.255 230.309,294.239 230.892 C 294.223 231.475,294.045 232.106,293.843 232.293 C 293.554 232.561,293.517 232.558,293.673 232.283 C 293.782 232.090,293.728 231.933,293.553 231.933 C 293.379 231.933,293.279 232.153,293.331 232.423 C 293.383 232.693,293.570 232.913,293.748 232.913 C 293.926 232.913,294.176 233.028,294.304 233.168 C 294.437 233.313,294.404 233.347,294.229 233.247 C 293.936 233.080,293.098 235.131,293.237 235.676 C 293.271 235.809,293.118 236.061,292.897 236.236 C 292.676 236.411,292.516 236.933,292.542 237.395 C 292.568 237.857,292.398 238.478,292.163 238.774 C 291.929 239.070,291.881 239.228,292.057 239.125 C 292.473 238.884,292.792 239.696,292.381 239.950 C 292.175 240.078,292.150 240.011,292.307 239.749 C 292.510 239.414,292.473 239.414,292.057 239.751 C 291.674 240.062,291.648 240.196,291.934 240.377 C 292.217 240.557,292.205 240.610,291.877 240.616 C 291.629 240.621,291.572 240.709,291.737 240.831 C 292.182 241.158,292.062 242.387,291.527 242.980 C 290.918 243.654,290.912 243.870,291.495 244.094 C 291.916 244.255,291.914 244.313,291.474 244.799 C 290.868 245.468,290.738 246.242,291.142 246.762 C 291.390 247.081,291.374 247.116,291.062 246.929 C 290.758 246.745,290.704 246.829,290.826 247.295 C 290.991 247.927,290.609 248.158,290.406 247.549 C 290.341 247.356,290.222 247.546,290.141 247.969 C 290.060 248.393,290.089 248.739,290.205 248.739 C 290.321 248.739,290.491 248.935,290.583 249.174 C 290.675 249.413,290.638 249.540,290.502 249.456 C 290.213 249.277,289.846 250.081,290.060 250.426 C 290.140 250.556,290.058 250.753,289.877 250.864 C 289.655 251.002,289.623 250.940,289.778 250.674 C 289.903 250.457,289.898 250.378,289.766 250.498 C 289.332 250.893,289.396 251.540,289.871 251.560 C 290.240 251.576,290.221 251.630,289.776 251.821 C 289.468 251.953,289.326 252.070,289.460 252.081 C 289.594 252.092,289.548 252.290,289.356 252.521 C 289.126 252.798,289.111 252.941,289.313 252.941 C 289.481 252.941,289.546 253.130,289.457 253.361 C 289.368 253.592,289.435 253.782,289.606 253.782 C 290.019 253.782,289.999 254.214,289.566 254.672 C 289.373 254.875,289.171 255.357,289.117 255.742 C 289.062 256.127,288.873 256.535,288.697 256.648 C 288.398 256.839,288.823 256.988,289.416 256.899 C 289.526 256.883,289.544 257.057,289.456 257.286 C 289.368 257.516,289.176 257.703,289.029 257.703 C 288.882 257.703,288.830 257.594,288.912 257.462 C 288.994 257.329,288.791 257.234,288.461 257.251 C 287.852 257.283,287.362 257.983,287.948 257.983 C 288.124 257.983,288.190 257.857,288.095 257.703 C 288.000 257.549,288.048 257.423,288.202 257.423 C 288.704 257.423,288.891 258.061,288.481 258.376 C 288.261 258.545,288.092 258.873,288.106 259.104 C 288.120 259.335,288.063 259.650,287.980 259.804 C 287.896 259.958,287.811 260.462,287.790 260.924 C 287.727 262.338,287.684 262.504,287.427 262.345 C 287.290 262.260,287.113 262.442,287.033 262.748 C 286.953 263.054,287.008 263.379,287.155 263.470 C 287.317 263.571,287.294 263.790,287.094 264.031 C 286.914 264.248,286.876 264.430,287.011 264.434 C 287.145 264.439,287.033 264.572,286.763 264.729 C 286.370 264.958,286.331 265.129,286.572 265.579 C 286.769 265.946,286.779 266.258,286.601 266.474 C 286.222 266.938,286.105 267.858,286.372 268.284 C 286.496 268.481,286.492 268.607,286.365 268.564 C 286.238 268.522,286.111 268.613,286.083 268.768 C 286.054 268.922,286.243 269.020,286.503 268.986 C 286.762 268.952,286.660 269.079,286.275 269.268 C 285.447 269.673,285.277 270.198,285.774 270.810 C 286.084 271.191,286.060 271.225,285.605 271.054 C 285.196 270.901,285.143 270.937,285.371 271.212 C 285.533 271.408,285.688 271.695,285.714 271.849 C 285.740 272.003,285.834 272.192,285.923 272.269 C 286.011 272.346,285.982 272.232,285.856 272.016 C 285.707 271.760,285.734 271.688,285.933 271.811 C 286.367 272.079,286.243 273.079,285.797 272.908 C 285.569 272.821,285.434 272.994,285.434 273.376 C 285.434 273.710,285.330 273.918,285.202 273.839 C 285.074 273.760,284.979 274.245,284.992 274.916 C 285.004 275.588,284.919 276.079,284.804 276.007 C 284.688 275.936,284.584 276.105,284.573 276.384 C 284.535 277.319,284.300 278.277,284.047 278.530 C 283.900 278.677,283.922 279.055,284.100 279.446 C 284.402 280.109,284.427 280.112,289.104 280.112 C 293.989 280.112,294.582 279.969,293.707 279.002 C 293.355 278.613,293.325 278.435,293.582 278.276 C 293.788 278.149,293.852 278.181,293.742 278.359 C 293.642 278.520,293.747 278.724,293.976 278.812 C 294.204 278.900,294.378 278.881,294.361 278.771 C 294.345 278.661,294.360 278.508,294.395 278.431 C 294.452 278.305,294.542 277.461,294.641 276.120 C 294.661 275.851,294.835 275.662,295.028 275.700 C 295.249 275.745,295.390 275.411,295.412 274.790 C 295.431 274.251,295.463 273.409,295.482 272.919 C 295.502 272.429,295.699 271.848,295.920 271.627 C 296.201 271.346,296.234 271.136,296.028 270.930 C 295.822 270.724,297.219 270.625,300.667 270.602 C 305.426 270.569,306.978 270.789,306.574 271.443 C 306.484 271.589,306.516 271.709,306.646 271.709 C 306.776 271.709,306.887 271.929,306.892 272.199 C 306.897 272.468,307.000 272.988,307.122 273.354 C 307.249 273.737,307.236 273.954,307.091 273.864 C 306.952 273.778,306.821 273.944,306.799 274.233 C 306.771 274.606,306.890 274.708,307.207 274.586 C 307.542 274.458,307.592 274.515,307.407 274.812 C 307.002 275.461,307.029 275.883,307.465 275.715 C 307.776 275.596,307.832 275.719,307.701 276.239 C 307.574 276.745,307.744 277.162,308.370 277.879 C 308.831 278.408,309.122 278.906,309.016 278.986 C 308.910 279.066,308.806 279.352,308.785 279.622 C 308.748 280.083,309.651 280.112,324.137 280.112 C 336.376 280.112,339.486 280.040,339.319 279.762 C 339.158 279.495,339.214 279.498,339.553 279.772 C 339.938 280.084,339.993 280.037,339.957 279.422 C 339.934 279.032,339.821 278.712,339.706 278.712 C 339.590 278.712,339.496 278.270,339.496 277.731 C 339.496 277.155,339.357 276.751,339.160 276.751 C 338.904 276.751,338.901 276.673,339.150 276.424 C 339.398 276.176,339.362 276.008,338.996 275.723 C 338.606 275.419,338.599 275.377,338.959 275.502 C 339.238 275.598,339.402 275.494,339.402 275.222 C 339.402 274.984,339.313 274.790,339.203 274.790 C 339.093 274.790,338.847 274.412,338.655 273.950 C 338.464 273.487,338.188 273.109,338.041 273.109 C 337.895 273.109,337.978 272.907,338.225 272.659 C 338.559 272.325,338.596 272.114,338.368 271.840 C 338.199 271.637,338.095 271.303,338.136 271.099 C 338.265 270.466,337.813 269.156,337.528 269.332 C 337.357 269.438,337.360 269.227,337.536 268.765 C 337.867 267.895,337.898 267.214,337.605 267.260 C 337.082 267.343,336.743 267.196,336.601 266.826 C 336.497 266.554,336.607 266.456,336.944 266.521 C 337.237 266.577,337.442 266.449,337.442 266.209 C 337.442 265.985,337.292 265.860,337.110 265.930 C 336.897 266.011,336.788 265.764,336.806 265.242 C 336.822 264.794,336.961 264.423,337.115 264.418 C 337.269 264.413,337.172 264.279,336.899 264.120 C 336.626 263.961,336.476 263.713,336.565 263.568 C 336.655 263.424,336.437 263.296,336.081 263.286 C 335.620 263.272,335.555 263.211,335.854 263.076 C 336.504 262.781,336.202 259.331,335.462 258.591 C 335.193 258.323,335.132 257.987,335.278 257.595 C 335.399 257.269,335.399 256.751,335.276 256.443 C 335.154 256.134,335.043 256.008,335.029 256.162 C 335.016 256.317,334.883 256.254,334.734 256.022 C 334.349 255.426,334.390 255.175,334.846 255.350 C 335.061 255.433,335.333 255.346,335.449 255.158 C 335.594 254.923,335.544 254.888,335.290 255.045 C 335.018 255.213,334.968 255.145,335.103 254.793 C 335.213 254.508,335.175 254.382,335.011 254.484 C 334.859 254.578,334.724 254.364,334.712 254.008 C 334.700 253.652,334.626 253.519,334.548 253.711 C 334.337 254.236,333.978 254.134,333.812 253.501 C 333.732 253.193,333.780 253.011,333.920 253.097 C 334.059 253.184,334.176 253.089,334.178 252.888 C 334.181 252.621,334.256 252.636,334.454 252.941 C 334.683 253.295,334.726 253.280,334.730 252.841 C 334.732 252.509,334.592 252.376,334.341 252.472 C 333.769 252.691,333.564 252.359,333.966 251.863 C 334.182 251.596,334.193 251.505,333.995 251.624 C 333.812 251.734,333.616 251.579,333.531 251.257 C 333.451 250.950,333.494 250.767,333.627 250.849 C 333.760 250.931,333.820 250.458,333.760 249.799 C 333.618 248.232,333.598 248.194,333.333 249.020 L 333.109 249.720 333.081 248.950 C 333.061 248.400,333.193 248.173,333.543 248.157 C 333.813 248.145,333.883 248.074,333.699 247.999 C 333.515 247.924,333.434 247.682,333.519 247.461 C 333.604 247.240,333.547 247.059,333.392 247.059 C 333.237 247.059,333.129 246.561,333.152 245.952 C 333.178 245.253,333.095 244.943,332.927 245.112 C 332.512 245.527,332.355 245.431,332.330 244.748 C 332.262 242.879,331.963 240.806,331.740 240.652 C 331.600 240.555,331.457 240.055,331.423 239.539 C 331.388 239.024,331.167 238.410,330.933 238.175 C 330.698 237.941,330.581 237.673,330.674 237.580 C 330.767 237.487,330.960 237.597,331.103 237.823 C 331.322 238.169,331.365 238.156,331.368 237.745 C 331.371 237.475,331.231 237.255,331.058 237.255 C 330.846 237.255,330.861 237.113,331.106 236.819 C 331.305 236.579,331.352 236.419,331.210 236.464 C 331.068 236.508,330.671 236.300,330.327 236.002 L 329.703 235.459 330.306 234.816 C 330.641 234.460,330.759 234.174,330.571 234.174 C 330.311 234.174,330.307 234.033,330.555 233.571 C 330.830 233.058,330.810 232.994,330.425 233.142 C 329.956 233.322,329.914 233.128,329.855 230.498 C 329.839 229.807,329.720 229.526,329.482 229.617 C 329.289 229.691,329.132 229.612,329.132 229.442 C 329.132 229.271,329.263 229.132,329.423 229.132 C 329.591 229.132,329.561 228.966,329.353 228.741 C 329.154 228.526,328.906 228.402,328.801 228.465 C 328.696 228.529,328.529 228.449,328.430 228.289 C 328.331 228.129,328.411 228.032,328.608 228.074 C 328.805 228.117,328.966 227.899,328.966 227.591 C 328.966 227.283,328.817 227.061,328.635 227.099 C 328.400 227.147,328.348 226.786,328.456 225.870 C 328.597 224.669,328.574 224.607,328.150 225.032 C 327.502 225.679,327.366 225.601,327.851 224.860 C 328.358 224.085,328.289 223.487,327.613 222.811 C 327.317 222.515,327.223 222.251,327.393 222.195 C 327.599 222.126,327.603 221.846,327.407 221.281 L 327.123 220.467 312.670 220.453 C 304.721 220.446,298.156 220.378,298.081 220.304 C 298.007 220.229,304.262 220.168,311.982 220.168 C 321.037 220.168,326.079 220.069,326.190 219.888 C 326.286 219.734,326.325 219.638,326.277 219.675 C 326.229 219.712,319.866 219.776,312.136 219.818 M120.620 220.683 C 120.806 222.244,120.729 279.605,120.540 279.920 C 120.411 280.134,120.500 280.123,120.790 279.888 C 121.092 279.644,121.298 279.621,121.420 279.818 C 121.706 280.281,165.824 280.225,165.834 279.762 C 165.983 272.724,165.933 270.582,165.616 270.460 C 165.424 270.386,165.266 270.133,165.266 269.897 C 165.266 269.661,165.077 269.468,164.846 269.468 C 164.615 269.468,164.426 269.601,164.426 269.764 C 164.426 269.928,164.571 269.971,164.749 269.861 C 164.950 269.737,164.997 269.784,164.873 269.985 C 164.731 270.214,162.832 270.308,158.370 270.308 C 154.240 270.308,152.127 270.212,152.241 270.028 C 152.469 269.659,152.014 269.667,151.643 270.038 C 151.443 270.238,151.375 270.129,151.423 269.688 C 151.462 269.336,151.504 265.983,151.517 262.238 C 151.533 257.776,151.637 255.489,151.821 255.602 C 151.975 255.697,152.101 255.579,152.101 255.339 C 152.101 254.956,152.885 254.902,158.433 254.902 C 164.234 254.902,164.751 254.941,164.586 255.370 C 164.474 255.662,164.674 255.570,165.121 255.124 C 166.064 254.180,166.398 245.073,165.482 245.250 C 165.216 245.302,164.925 245.225,164.835 245.081 C 164.742 244.930,162.027 244.818,158.457 244.818 L 152.241 244.818 152.241 237.465 L 152.241 230.112 158.403 230.112 C 162.188 230.112,164.645 230.220,164.772 230.392 C 164.885 230.546,164.981 230.420,164.986 230.112 C 164.993 229.657,165.044 229.629,165.255 229.964 C 165.398 230.191,165.592 230.300,165.685 230.207 C 166.026 229.865,165.874 220.943,165.521 220.618 C 165.320 220.433,165.250 220.427,165.347 220.602 C 165.436 220.763,165.393 221.078,165.252 221.302 C 164.981 221.730,164.953 221.669,164.873 220.448 C 164.827 219.747,122.274 219.677,121.474 220.376 C 121.165 220.647,120.996 220.724,121.099 220.548 C 121.201 220.371,121.115 220.162,120.908 220.082 C 120.638 219.978,120.556 220.150,120.620 220.683 M195.137 220.308 C 195.225 220.539,195.158 220.728,194.988 220.728 C 194.817 220.728,194.678 220.601,194.678 220.446 C 194.678 220.275,194.463 220.297,194.136 220.502 C 193.838 220.688,193.668 220.961,193.759 221.108 C 193.850 221.255,193.777 221.284,193.596 221.172 C 193.416 221.061,193.341 220.852,193.429 220.709 C 193.518 220.566,193.485 220.448,193.356 220.448 C 192.979 220.448,192.185 221.501,192.390 221.730 C 192.493 221.845,192.425 221.851,192.239 221.745 C 192.053 221.638,191.979 221.348,192.074 221.101 C 192.191 220.795,192.120 220.694,191.851 220.783 C 191.634 220.856,191.457 221.062,191.457 221.242 C 191.457 221.580,191.186 221.608,190.496 221.344 C 190.271 221.257,189.920 221.456,189.692 221.800 C 189.469 222.135,188.995 222.409,188.638 222.409 C 188.281 222.409,187.905 222.544,187.803 222.708 C 187.702 222.873,187.446 222.941,187.236 222.860 C 187.025 222.780,186.777 222.836,186.684 222.986 C 186.592 223.136,186.379 223.174,186.212 223.071 C 186.030 222.958,185.988 223.013,186.108 223.206 C 186.218 223.384,186.167 223.529,185.994 223.529 C 185.822 223.529,185.772 223.677,185.884 223.857 C 186.020 224.077,185.934 224.126,185.624 224.007 C 185.338 223.898,185.186 223.960,185.227 224.170 C 185.264 224.357,185.121 224.473,184.910 224.428 C 184.660 224.375,184.585 224.504,184.696 224.793 C 184.790 225.038,184.752 225.168,184.610 225.080 C 184.468 224.992,184.272 225.051,184.174 225.210 C 184.075 225.369,183.876 225.426,183.730 225.335 C 183.584 225.245,183.536 225.055,183.623 224.914 C 183.711 224.772,183.588 224.731,183.349 224.822 C 183.111 224.914,182.973 225.081,183.043 225.194 C 183.381 225.740,182.322 226.614,181.706 226.297 C 181.208 226.041,181.157 226.050,181.433 226.343 C 181.704 226.629,181.628 226.839,181.067 227.359 C 180.666 227.731,180.448 228.155,180.562 228.340 C 180.702 228.565,180.598 228.608,180.228 228.478 C 179.710 228.296,179.709 228.303,180.210 228.692 C 180.821 229.166,180.598 229.692,179.785 229.692 C 179.382 229.692,179.261 229.821,179.379 230.127 C 179.478 230.386,179.429 230.489,179.256 230.383 C 178.917 230.173,178.149 230.740,178.156 231.197 C 178.158 231.370,178.277 231.327,178.421 231.100 C 178.643 230.749,178.710 230.761,178.872 231.185 C 179.008 231.540,178.812 231.891,178.187 232.409 C 177.385 233.073,176.934 233.880,177.591 233.473 C 177.745 233.378,177.871 233.497,177.871 233.737 C 177.871 233.977,177.766 234.174,177.636 234.174 C 177.507 234.174,177.385 234.620,177.364 235.166 C 177.338 235.879,177.423 236.100,177.669 235.952 C 177.932 235.794,177.936 235.840,177.686 236.151 C 177.293 236.640,177.231 241.935,177.617 242.173 C 177.762 242.262,177.809 242.452,177.721 242.593 C 177.634 242.735,177.745 242.781,177.968 242.695 C 178.192 242.609,178.458 242.673,178.560 242.838 C 178.661 243.003,178.626 243.137,178.481 243.137 C 178.335 243.137,178.151 243.389,178.070 243.697 C 177.990 244.006,178.038 244.258,178.177 244.258 C 178.317 244.258,178.431 244.111,178.431 243.931 C 178.431 243.751,178.498 243.671,178.579 243.752 C 178.661 243.833,178.596 244.244,178.436 244.665 C 178.183 245.332,178.220 245.449,178.731 245.582 C 179.143 245.690,179.275 245.895,179.176 246.273 C 179.068 246.687,179.119 246.742,179.397 246.511 C 179.661 246.291,179.861 246.339,180.145 246.689 C 180.405 247.009,180.417 247.097,180.182 246.956 C 179.949 246.816,179.832 246.931,179.832 247.299 C 179.832 247.648,180.148 247.990,180.689 248.226 C 181.360 248.518,181.521 248.739,181.427 249.239 C 181.361 249.591,181.373 249.813,181.454 249.732 C 181.719 249.467,182.352 250.195,182.385 250.805 C 182.413 251.317,182.437 251.328,182.551 250.883 C 182.706 250.283,183.228 251.086,183.571 252.451 C 183.724 253.062,183.878 253.162,184.500 253.049 C 185.129 252.935,185.192 252.978,184.906 253.323 C 184.671 253.605,184.659 253.789,184.865 253.916 C 185.029 254.017,185.083 254.230,184.985 254.389 C 184.887 254.548,185.105 254.518,185.470 254.324 C 186.097 253.990,186.111 253.999,185.714 254.488 C 185.332 254.960,185.340 254.990,185.799 254.818 C 186.081 254.712,186.233 254.742,186.144 254.886 C 186.057 255.027,186.115 255.224,186.275 255.322 C 186.434 255.420,186.491 255.618,186.403 255.762 C 186.314 255.905,186.438 256.022,186.678 256.022 C 186.918 256.022,187.115 256.205,187.115 256.429 C 187.115 256.652,187.315 256.947,187.560 257.084 C 187.805 257.221,187.995 257.447,187.983 257.585 C 187.970 257.724,188.116 257.851,188.308 257.868 C 188.499 257.884,188.872 257.917,189.137 257.941 C 189.441 257.968,189.559 258.137,189.458 258.402 C 189.369 258.632,189.153 258.743,188.976 258.648 C 188.800 258.554,189.151 258.933,189.757 259.490 C 190.362 260.048,190.694 260.504,190.493 260.504 C 190.219 260.504,190.206 260.598,190.439 260.880 C 190.611 261.087,190.669 261.339,190.567 261.440 C 190.466 261.542,190.530 261.625,190.710 261.625 C 190.889 261.625,191.036 261.478,191.036 261.298 C 191.036 261.118,191.117 261.052,191.216 261.151 C 191.315 261.250,191.221 261.547,191.006 261.812 C 190.748 262.130,190.735 262.221,190.966 262.082 C 191.159 261.966,191.317 262.005,191.317 262.168 C 191.317 262.331,191.513 262.465,191.753 262.465 C 191.993 262.465,192.113 262.340,192.019 262.188 C 191.921 262.029,192.033 261.982,192.282 262.078 C 192.746 262.256,192.883 262.745,192.470 262.745 C 192.106 262.745,191.913 263.720,192.182 264.200 C 192.519 264.802,192.681 266.656,192.411 266.823 C 192.285 266.901,192.260 267.170,192.357 267.422 C 192.465 267.705,192.419 267.809,192.236 267.696 C 191.885 267.479,191.417 267.992,191.277 268.748 C 191.222 269.045,191.050 269.278,190.896 269.265 C 190.742 269.253,190.415 269.351,190.169 269.482 C 189.901 269.626,189.603 269.603,189.425 269.425 C 189.216 269.216,189.141 269.282,189.172 269.648 C 189.229 270.328,180.980 270.632,180.193 269.979 C 179.757 269.617,178.423 269.431,178.440 269.735 C 178.455 269.986,179.177 270.865,179.311 270.794 C 179.378 270.758,179.240 270.917,179.003 271.148 C 178.641 271.501,178.594 272.193,178.711 275.424 C 178.821 278.438,178.775 279.250,178.501 279.144 C 178.309 279.070,178.151 279.202,178.151 279.437 C 178.151 279.672,178.277 279.787,178.431 279.692 C 178.585 279.597,178.711 279.656,178.711 279.823 C 178.711 280.163,207.355 280.227,207.694 279.888 C 207.979 279.603,208.796 279.655,209.029 279.972 C 209.150 280.137,209.239 280.079,209.244 279.832 C 209.251 279.466,209.286 279.465,209.511 279.821 C 209.733 280.171,209.852 280.156,210.340 279.713 C 210.654 279.429,210.844 279.088,210.762 278.955 C 210.679 278.822,210.952 278.842,211.366 279.000 C 211.935 279.216,212.270 279.188,212.729 278.888 C 213.130 278.625,213.492 278.575,213.789 278.741 C 214.111 278.922,214.466 278.804,215.033 278.329 C 215.654 277.809,215.970 277.717,216.487 277.910 C 217.010 278.104,217.116 278.072,216.994 277.754 C 216.826 277.315,217.445 276.642,217.743 276.940 C 217.844 277.041,217.927 276.970,217.927 276.781 C 217.927 276.592,218.050 276.513,218.199 276.606 C 218.349 276.698,218.551 276.453,218.650 276.062 C 218.748 275.670,219.011 275.350,219.235 275.350 C 219.458 275.350,219.556 275.213,219.453 275.046 C 219.328 274.845,219.565 274.773,220.148 274.834 C 221.137 274.937,221.735 274.347,221.242 273.754 C 221.021 273.487,221.147 273.319,221.748 273.080 C 222.204 272.899,222.396 272.706,222.193 272.630 C 221.720 272.455,223.013 271.430,223.714 271.424 C 224.149 271.421,224.164 271.378,223.810 271.148 C 223.441 270.910,223.593 270.756,224.130 270.825 C 224.229 270.838,224.374 270.601,224.454 270.298 C 224.534 269.990,224.455 269.740,224.273 269.730 C 224.095 269.720,224.233 269.598,224.580 269.459 C 224.926 269.320,225.210 269.005,225.210 268.760 C 225.210 268.494,225.341 268.395,225.533 268.514 C 225.735 268.639,225.781 268.591,225.654 268.386 C 225.543 268.206,225.336 268.130,225.194 268.217 C 225.052 268.305,225.014 268.174,225.109 267.926 C 225.205 267.678,225.442 267.536,225.637 267.611 C 225.885 267.706,225.977 267.458,225.946 266.787 C 225.921 266.258,226.018 265.826,226.162 265.826 C 226.306 265.826,226.341 265.743,226.240 265.642 C 226.138 265.541,226.202 265.281,226.380 265.066 C 226.631 264.764,226.623 264.694,226.343 264.760 C 226.144 264.807,225.923 264.688,225.852 264.496 C 225.781 264.303,225.923 264.146,226.167 264.146 C 226.411 264.146,226.611 264.012,226.611 263.849 C 226.611 263.686,226.472 263.638,226.303 263.743 C 226.079 263.881,226.079 263.776,226.303 263.358 C 226.659 262.692,226.704 262.170,226.401 262.218 C 225.862 262.303,225.668 262.152,226.025 261.926 C 226.356 261.717,226.361 261.534,226.058 260.803 C 225.746 260.049,225.760 259.859,226.161 259.417 C 226.559 258.976,226.568 258.857,226.226 258.573 C 226.005 258.389,225.888 257.968,225.964 257.623 C 226.062 257.171,226.026 257.106,225.830 257.383 C 225.516 257.825,225.248 257.496,225.360 256.806 C 225.402 256.544,225.074 255.950,224.631 255.487 C 223.832 254.650,223.136 252.945,223.749 253.324 C 223.915 253.427,224.142 253.363,224.254 253.183 C 224.376 252.985,224.335 252.929,224.152 253.043 C 223.985 253.146,223.682 252.995,223.479 252.708 C 223.275 252.420,222.888 252.218,222.618 252.258 C 222.347 252.299,222.194 252.222,222.277 252.088 C 222.430 251.840,221.895 250.698,221.485 250.395 C 221.361 250.304,221.240 249.957,221.215 249.625 C 221.190 249.292,221.000 249.020,220.792 249.020 C 220.570 249.020,220.498 249.163,220.617 249.370 C 220.734 249.573,220.711 249.622,220.563 249.486 C 220.423 249.358,220.297 249.169,220.284 249.066 C 220.271 248.964,220.164 248.627,220.047 248.319 C 219.930 248.011,219.780 247.583,219.714 247.369 C 219.649 247.154,219.520 247.054,219.428 247.145 C 219.336 247.237,219.089 247.140,218.879 246.930 C 218.669 246.720,218.370 246.506,218.215 246.454 C 218.059 246.401,217.903 246.005,217.867 245.572 C 217.818 244.970,217.685 244.816,217.304 244.916 C 217.030 244.987,216.871 244.940,216.951 244.811 C 217.031 244.682,216.966 244.496,216.807 244.398 C 216.648 244.299,216.590 244.102,216.679 243.958 C 216.767 243.815,216.652 243.697,216.422 243.697 C 216.128 243.697,216.041 243.488,216.130 242.997 C 216.260 242.282,215.847 242.014,215.592 242.647 C 215.514 242.840,215.440 242.727,215.428 242.397 C 215.414 242.007,215.170 241.738,214.732 241.628 C 214.225 241.501,214.094 241.319,214.204 240.898 C 214.285 240.589,214.210 240.320,214.038 240.301 C 213.715 240.265,213.320 240.176,212.955 240.058 C 212.840 240.020,212.659 240.002,212.555 240.016 C 212.347 240.045,212.534 238.717,212.798 238.290 C 212.890 238.141,212.739 238.149,212.453 238.309 C 211.861 238.641,210.789 237.024,211.339 236.629 C 211.522 236.497,211.502 236.422,211.284 236.419 C 211.097 236.416,210.801 236.147,210.626 235.821 C 210.369 235.340,210.381 235.268,210.686 235.441 C 210.991 235.615,210.996 235.583,210.714 235.279 C 210.230 234.758,210.276 234.438,210.805 234.641 C 211.086 234.748,211.227 234.668,211.192 234.422 C 211.071 233.552,211.221 232.750,211.476 232.908 C 211.626 233.000,211.930 232.640,212.153 232.107 C 212.375 231.574,212.852 230.994,213.212 230.819 C 213.835 230.516,213.840 230.522,213.322 230.937 C 212.674 231.456,212.871 231.495,213.863 231.043 C 214.262 230.861,214.536 230.577,214.472 230.412 C 214.393 230.206,215.869 230.112,219.199 230.112 C 221.863 230.112,224.021 230.221,223.996 230.355 C 223.970 230.489,224.170 230.635,224.440 230.680 C 224.709 230.726,224.930 230.656,224.930 230.526 C 224.930 230.396,225.189 230.208,225.505 230.107 C 225.952 229.966,226.010 229.840,225.765 229.545 C 225.573 229.314,225.483 228.318,225.535 226.999 C 225.596 225.467,225.520 224.800,225.276 224.718 C 225.063 224.648,224.930 224.066,224.930 223.209 C 224.930 222.352,225.038 221.882,225.210 221.989 C 225.364 222.084,225.490 221.926,225.490 221.637 C 225.490 221.318,225.062 220.871,224.402 220.500 C 223.190 219.819,199.707 219.509,199.299 220.169 C 199.189 220.347,198.948 220.355,198.637 220.188 C 198.369 220.045,197.989 220.026,197.793 220.147 C 197.598 220.268,197.132 220.333,196.758 220.292 C 196.384 220.251,196.074 220.364,196.070 220.543 C 196.065 220.722,195.893 220.648,195.689 220.378 C 195.233 219.777,194.918 219.738,195.137 220.308 M153.831 220.378 C 147.927 220.420,138.347 220.420,132.542 220.378 C 126.738 220.336,131.569 220.301,143.277 220.301 C 154.986 220.301,159.735 220.336,153.831 220.378 M217.577 220.378 C 214.226 220.423,208.743 220.423,205.392 220.378 C 202.041 220.333,204.783 220.297,211.485 220.297 C 218.186 220.297,220.928 220.333,217.577 220.378 M166.499 225.210 C 166.499 227.598,166.542 228.575,166.595 227.381 C 166.647 226.187,166.647 224.233,166.595 223.039 C 166.542 221.845,166.499 222.822,166.499 225.210 M151.750 241.106 C 151.702 243.071,151.662 241.464,151.662 237.535 C 151.662 233.606,151.702 231.999,151.750 233.964 C 151.798 235.928,151.798 239.142,151.750 241.106 M101.611 267.017 C 101.569 273.680,101.535 268.228,101.535 254.902 C 101.535 241.576,101.569 236.124,101.611 242.787 C 101.652 249.450,101.652 260.354,101.611 267.017 M293.160 238.026 C 292.855 238.331,292.739 237.932,292.933 237.243 L 293.126 236.555 293.224 237.209 C 293.278 237.569,293.249 237.936,293.160 238.026 M166.499 250.140 C 166.499 252.528,166.542 253.505,166.595 252.311 C 166.647 251.117,166.647 249.163,166.595 247.969 C 166.542 246.775,166.499 247.752,166.499 250.140 M301.386 248.389 C 301.279 249.442,301.382 249.762,301.681 249.300 C 301.830 249.069,301.964 248.943,301.978 249.020 C 301.992 249.097,302.047 249.390,302.101 249.672 C 302.170 250.039,302.074 250.136,301.760 250.015 C 301.397 249.876,301.382 249.920,301.673 250.271 C 301.866 250.504,302.168 250.608,302.343 250.503 C 302.541 250.385,302.530 250.475,302.313 250.742 C 302.122 250.979,302.028 251.234,302.103 251.310 C 302.179 251.386,302.261 252.004,302.285 252.685 C 302.309 253.365,302.467 254.014,302.635 254.127 C 302.837 254.263,302.807 254.335,302.548 254.337 C 302.252 254.341,302.287 254.493,302.688 254.950 C 302.981 255.285,303.077 255.475,302.900 255.372 C 302.724 255.269,302.510 255.367,302.425 255.590 C 302.321 255.860,302.405 255.942,302.677 255.837 C 302.974 255.724,303.066 255.862,303.013 256.342 C 302.969 256.749,303.075 256.976,303.291 256.933 C 303.733 256.844,303.743 257.209,303.312 257.640 C 303.059 257.893,303.103 258.103,303.497 258.539 C 303.780 258.851,303.960 259.151,303.897 259.204 C 303.833 259.257,303.529 259.455,303.221 259.644 C 302.804 259.899,302.786 259.947,303.151 259.834 C 303.486 259.730,303.643 259.834,303.646 260.163 C 303.649 260.580,303.690 260.588,303.947 260.224 C 304.211 259.851,304.232 259.851,304.130 260.224 C 304.040 260.556,303.412 260.661,301.145 260.724 C 299.566 260.768,298.339 260.699,298.418 260.571 C 298.498 260.442,298.452 260.159,298.317 259.940 C 298.173 259.707,298.182 259.409,298.339 259.220 C 298.516 259.007,298.460 258.776,298.173 258.539 C 297.788 258.219,297.810 258.105,298.373 257.505 C 298.957 256.884,298.963 256.845,298.453 257.005 C 298.148 257.100,298.247 256.977,298.671 256.731 C 299.476 256.264,299.448 256.395,299.446 253.011 C 299.446 252.640,299.617 252.381,299.863 252.381 C 300.441 252.381,300.387 251.356,299.790 250.978 C 299.465 250.773,299.441 250.704,299.717 250.777 C 300.256 250.917,301.135 250.098,300.628 249.929 C 300.141 249.767,300.195 249.240,300.770 248.520 C 301.365 247.775,301.450 247.757,301.386 248.389 M166.499 275.070 C 166.499 277.458,166.542 278.435,166.595 277.241 C 166.647 276.047,166.647 274.093,166.595 272.899 C 166.542 271.705,166.499 272.682,166.499 275.070 M278.919 277.241 C 278.865 278.281,278.821 277.430,278.821 275.350 C 278.821 273.270,278.865 272.419,278.919 273.459 C 278.973 274.499,278.973 276.201,278.919 277.241 " stroke="none" fill="#94a4ac" fill-rule="evenodd"></path><path id="path1" d="M185.332 0.862 C 185.023 2.408,185.116 84.397,185.428 84.590 C 185.618 84.707,185.736 97.483,185.784 122.985 C 185.824 144.006,185.887 124.933,185.925 80.602 C 185.965 34.678,185.889 -0.000,185.749 -0.000 C 185.614 -0.000,185.427 0.388,185.332 0.862 M213.165 80.689 C 213.165 145.165,213.236 161.335,213.515 161.167 C 213.789 161.003,213.788 161.053,213.511 161.395 C 213.212 161.764,213.268 161.908,213.858 162.294 C 214.578 162.766,278.237 163.018,277.766 162.547 C 277.667 162.448,277.808 162.105,278.079 161.785 C 278.657 161.103,278.727 17.647,278.149 17.647 C 277.962 17.647,277.892 41.631,277.940 89.454 C 277.996 145.945,277.938 161.165,277.670 160.812 C 277.368 160.415,277.328 160.431,277.320 160.951 C 277.296 162.550,279.053 162.465,245.947 162.465 C 217.631 162.465,215.585 162.433,215.257 161.985 C 214.970 161.592,214.830 161.570,214.481 161.859 C 214.152 162.132,214.008 162.136,213.847 161.875 C 213.715 161.662,213.757 161.611,213.961 161.737 C 214.198 161.884,214.212 161.746,214.012 161.220 C 213.835 160.755,213.835 160.504,214.013 160.504 C 214.192 160.504,214.287 132.399,214.285 80.252 C 214.282 0.279,214.280 0.000,213.724 0.000 C 213.167 0.000,213.165 0.278,213.165 80.689 M277.031 17.227 C 277.031 17.458,277.157 17.647,277.311 17.647 C 277.465 17.647,277.591 17.458,277.591 17.227 C 277.591 16.996,277.465 16.807,277.311 16.807 C 277.157 16.807,277.031 16.996,277.031 17.227 M62.465 17.507 C 62.465 17.738,62.654 17.927,62.885 17.927 C 63.116 17.927,63.305 17.738,63.305 17.507 C 63.305 17.276,63.116 17.087,62.885 17.087 C 62.654 17.087,62.465 17.276,62.465 17.507 M67.227 17.507 C 67.227 17.738,67.416 17.927,67.647 17.927 C 67.878 17.927,68.067 17.738,68.067 17.507 C 68.067 17.276,67.878 17.087,67.647 17.087 C 67.416 17.087,67.227 17.276,67.227 17.507 M69.660 17.268 C 69.295 17.633,69.469 17.927,70.051 17.927 C 70.377 17.927,70.586 17.780,70.524 17.595 C 70.388 17.185,69.920 17.008,69.660 17.268 M74.422 17.268 C 74.057 17.633,74.231 17.927,74.813 17.927 C 75.139 17.927,75.348 17.780,75.286 17.595 C 75.150 17.185,74.682 17.008,74.422 17.268 M75.910 17.486 C 75.910 17.746,76.150 17.927,76.494 17.927 C 77.177 17.927,77.080 17.273,76.377 17.136 C 76.101 17.083,75.910 17.226,75.910 17.486 M80.865 17.268 C 80.500 17.633,80.674 17.927,81.256 17.927 C 81.582 17.927,81.790 17.780,81.729 17.595 C 81.592 17.185,81.124 17.008,80.865 17.268 M109.524 17.507 C 109.524 17.738,109.713 17.927,109.944 17.927 C 110.175 17.927,110.364 17.738,110.364 17.507 C 110.364 17.276,110.175 17.087,109.944 17.087 C 109.713 17.087,109.524 17.276,109.524 17.507 M112.045 17.507 C 112.045 17.738,112.234 17.927,112.465 17.927 C 112.696 17.927,112.885 17.738,112.885 17.507 C 112.885 17.276,112.696 17.087,112.465 17.087 C 112.234 17.087,112.045 17.276,112.045 17.507 M116.807 17.507 C 116.807 17.738,116.996 17.927,117.227 17.927 C 117.458 17.927,117.647 17.738,117.647 17.507 C 117.647 17.276,117.458 17.087,117.227 17.087 C 116.996 17.087,116.807 17.276,116.807 17.507 M292.069 17.268 C 291.704 17.633,291.878 17.927,292.460 17.927 C 292.786 17.927,292.995 17.780,292.933 17.595 C 292.797 17.185,292.329 17.008,292.069 17.268 M299.160 17.507 C 299.160 17.738,299.349 17.927,299.580 17.927 C 299.811 17.927,300.000 17.738,300.000 17.507 C 300.000 17.276,299.811 17.087,299.580 17.087 C 299.349 17.087,299.160 17.276,299.160 17.507 M305.602 17.507 C 305.602 17.738,305.791 17.927,306.022 17.927 C 306.254 17.927,306.443 17.738,306.443 17.507 C 306.443 17.276,306.254 17.087,306.022 17.087 C 305.791 17.087,305.602 17.276,305.602 17.507 M312.885 17.484 C 312.885 17.728,313.085 17.927,313.329 17.927 C 313.573 17.927,313.722 17.777,313.661 17.595 C 313.488 17.075,312.885 16.989,312.885 17.484 M317.647 17.507 C 317.647 17.738,317.836 17.927,318.067 17.927 C 318.298 17.927,318.487 17.738,318.487 17.507 C 318.487 17.276,318.298 17.087,318.067 17.087 C 317.836 17.087,317.647 17.276,317.647 17.507 M324.090 17.484 C 324.090 17.728,324.289 17.927,324.533 17.927 C 324.777 17.927,324.927 17.777,324.866 17.595 C 324.693 17.075,324.090 16.989,324.090 17.484 M120.653 89.847 C 120.701 143.391,120.800 162.074,121.037 162.360 C 121.305 162.683,126.526 162.745,153.232 162.745 C 186.761 162.745,186.505 162.755,184.542 161.555 C 183.498 160.917,122.267 160.778,122.479 161.415 C 122.571 161.691,129.043 161.780,153.330 161.836 C 173.640 161.883,184.007 162.002,183.893 162.186 C 183.678 162.534,123.003 162.566,122.455 162.219 C 122.249 162.089,122.092 161.902,122.105 161.803 C 122.179 161.253,122.100 161.049,121.868 161.193 C 121.308 161.539,121.284 158.664,121.287 89.409 C 121.290 32.412,121.220 17.961,120.939 17.853 C 120.658 17.745,120.601 32.121,120.653 89.847 M215.594 161.250 C 215.491 161.353,215.406 161.544,215.406 161.673 C 215.406 162.019,276.454 161.832,276.541 161.485 C 276.620 161.167,215.910 160.934,215.594 161.250 M168.676 161.555 C 160.152 161.596,146.287 161.596,137.864 161.555 C 129.441 161.513,136.415 161.480,153.361 161.480 C 170.308 161.480,177.200 161.513,168.676 161.555 M261.436 161.555 C 253.090 161.596,239.351 161.596,230.904 161.555 C 222.457 161.513,229.286 161.480,246.078 161.480 C 262.871 161.480,269.782 161.513,261.436 161.555 M59.226 219.822 C 58.904 220.045,58.824 221.289,59.132 221.289 C 59.235 221.289,59.376 220.910,59.444 220.448 C 59.511 219.986,59.557 219.610,59.545 219.612 C 59.533 219.614,59.390 219.709,59.226 219.822 M59.944 219.888 C 59.944 220.073,68.768 220.168,85.854 220.168 C 102.941 220.168,111.765 220.073,111.765 219.888 C 111.765 219.703,102.941 219.608,85.854 219.608 C 68.768 219.608,59.944 219.703,59.944 219.888 M112.049 220.098 C 112.052 220.474,112.109 220.501,112.291 220.214 C 113.074 218.978,113.541 220.500,113.737 224.930 L 113.905 228.711 113.933 224.321 C 113.962 219.659,113.947 219.608,112.582 219.608 C 112.256 219.608,112.046 219.800,112.049 220.098 M120.784 219.944 C 120.599 220.129,120.448 220.390,120.448 220.524 C 120.448 220.658,120.644 220.572,120.883 220.333 C 121.271 219.946,123.718 219.905,143.059 219.963 L 164.799 220.028 164.846 220.658 C 164.895 221.323,165.266 221.907,165.266 221.319 C 165.266 221.119,165.412 221.063,165.616 221.186 C 165.820 221.308,165.791 221.176,165.546 220.868 C 165.301 220.561,165.272 220.428,165.476 220.551 C 165.711 220.692,165.826 220.571,165.826 220.185 L 165.826 219.608 143.473 219.608 C 126.461 219.608,121.040 219.688,120.784 219.944 M195.518 220.036 C 195.518 220.244,195.644 220.493,195.798 220.588 C 195.952 220.683,196.078 220.607,196.078 220.418 C 196.078 220.229,196.161 220.158,196.263 220.259 C 196.364 220.360,196.616 220.303,196.823 220.131 C 197.045 219.947,197.199 219.932,197.199 220.095 C 197.199 220.247,197.546 220.302,197.969 220.218 C 198.393 220.134,204.286 220.053,211.064 220.037 L 223.389 220.009 211.625 220.170 L 199.860 220.331 212.500 220.320 C 222.500 220.311,225.111 220.381,225.005 220.658 C 224.931 220.851,225.010 221.008,225.180 221.008 C 225.351 221.008,225.490 221.268,225.490 221.585 C 225.490 221.902,225.364 222.084,225.210 221.989 C 225.038 221.882,224.930 222.349,224.930 223.203 C 224.930 224.078,225.064 224.641,225.292 224.729 C 225.538 224.823,225.679 225.615,225.733 227.208 C 225.871 231.247,226.050 229.990,226.050 224.987 C 226.050 220.529,226.012 220.167,225.509 219.898 C 224.820 219.529,224.285 219.524,224.510 219.888 C 224.605 220.042,224.549 220.168,224.386 220.168 C 224.223 220.168,224.090 220.037,224.090 219.878 C 224.090 219.680,219.504 219.598,209.804 219.622 C 197.991 219.650,195.518 219.722,195.518 220.036 M236.208 219.774 C 236.400 219.966,265.880 219.928,266.072 219.735 C 266.142 219.665,259.414 219.608,251.120 219.608 C 242.827 219.608,236.116 219.683,236.208 219.774 M296.127 220.256 C 295.259 221.180,295.326 221.831,296.278 221.729 C 296.808 221.673,297.169 221.383,297.469 220.775 L 297.899 219.901 312.045 219.960 L 326.190 220.020 312.045 220.168 L 297.899 220.316 311.958 220.382 C 321.172 220.425,326.077 220.351,326.192 220.166 C 326.301 219.989,326.517 220.034,326.767 220.285 C 327.309 220.827,327.793 222.129,327.453 222.129 C 327.088 222.129,327.413 222.895,327.848 223.062 C 328.413 223.279,328.406 220.759,327.840 220.133 C 327.408 219.656,326.499 219.625,312.450 219.613 L 297.519 219.600 297.397 220.234 L 297.275 220.868 297.237 220.238 C 297.189 219.436,296.893 219.441,296.127 220.256 M193.476 220.448 C 193.396 220.756,193.464 221.090,193.627 221.191 C 193.791 221.293,193.843 221.243,193.742 221.081 C 193.642 220.919,193.749 220.715,193.979 220.626 C 194.506 220.424,194.528 219.888,194.010 219.888 C 193.797 219.888,193.557 220.140,193.476 220.448 M235.574 220.437 C 235.574 220.751,235.693 221.008,235.838 221.008 C 236.302 221.008,236.368 220.600,235.965 220.227 C 235.640 219.927,235.574 219.963,235.574 220.437 M132.542 220.378 C 138.347 220.420,147.927 220.420,153.831 220.378 C 159.735 220.336,154.986 220.301,143.277 220.301 C 131.569 220.301,126.738 220.336,132.542 220.378 M245.188 220.378 C 249.166 220.422,255.594 220.422,259.473 220.378 C 263.353 220.334,260.098 220.298,252.241 220.298 C 244.384 220.298,241.210 220.334,245.188 220.378 M190.630 220.823 C 190.165 221.164,190.160 221.215,190.580 221.376 C 191.211 221.618,191.430 221.515,191.518 220.938 C 191.608 220.352,191.325 220.315,190.630 220.823 M192.011 221.003 C 192.034 221.308,192.159 221.654,192.289 221.773 C 192.420 221.892,192.436 221.831,192.325 221.639 C 192.214 221.446,192.265 221.289,192.437 221.289 C 192.609 221.289,192.679 221.173,192.592 221.032 C 192.505 220.891,192.592 220.712,192.785 220.634 C 192.979 220.556,192.875 220.482,192.554 220.470 C 192.139 220.455,191.982 220.608,192.011 221.003 M120.517 250.419 C 120.573 273.724,120.662 279.950,120.938 280.042 C 121.131 280.106,121.289 280.015,121.289 279.839 C 121.289 279.663,121.165 279.595,121.013 279.689 C 120.834 279.800,120.736 269.650,120.731 250.525 C 120.727 234.391,120.661 221.128,120.584 221.051 C 120.508 220.975,120.478 234.190,120.517 250.419 M235.922 221.195 C 235.642 221.308,235.575 227.363,235.597 250.794 C 235.611 266.996,235.686 280.095,235.762 279.902 C 235.839 279.709,236.080 279.552,236.298 279.552 C 236.638 279.552,236.685 275.447,236.627 250.770 L 236.559 221.989 236.415 250.560 L 236.271 279.132 236.202 250.194 C 236.151 228.376,236.214 221.305,236.458 221.455 C 236.658 221.579,236.705 221.532,236.581 221.332 C 236.471 221.154,236.357 221.018,236.328 221.031 C 236.299 221.043,236.116 221.117,235.922 221.195 M166.190 225.882 C 166.183 228.486,166.256 230.440,166.353 230.224 C 166.449 230.008,166.455 227.878,166.366 225.490 L 166.203 221.148 166.190 225.882 M187.718 221.812 C 187.096 222.351,186.914 222.969,187.378 222.969 C 187.523 222.969,187.720 222.843,187.815 222.689 C 187.910 222.535,188.291 222.409,188.662 222.409 C 189.049 222.409,189.464 222.171,189.636 221.849 C 190.045 221.083,188.590 221.055,187.718 221.812 M268.067 245.335 C 267.990 258.637,268.024 269.581,268.142 269.654 C 268.260 269.727,268.284 269.904,268.195 270.047 C 267.824 270.647,277.002 270.357,277.656 269.748 L 278.257 269.188 273.304 269.188 L 268.350 269.188 268.279 245.168 L 268.207 221.148 268.067 245.335 M295.546 222.876 C 295.531 223.364,295.361 223.819,295.168 223.888 C 294.975 223.957,294.892 224.094,294.983 224.193 C 295.348 224.591,295.990 223.385,295.783 222.689 C 295.585 222.026,295.573 222.036,295.546 222.876 M186.241 222.619 C 186.223 222.735,186.219 222.911,186.232 223.010 C 186.245 223.110,186.026 223.132,185.746 223.059 C 185.467 222.986,185.039 223.125,184.796 223.368 C 184.553 223.611,184.219 223.810,184.054 223.810 C 183.889 223.810,183.754 223.919,183.754 224.052 C 183.754 224.186,183.259 224.622,182.655 225.022 C 182.051 225.422,181.476 226.006,181.376 226.320 C 181.276 226.634,181.014 226.891,180.793 226.891 C 180.573 226.891,180.392 227.080,180.392 227.311 C 180.392 227.542,180.235 227.735,180.042 227.740 C 179.364 227.758,178.654 229.755,179.151 230.246 C 179.537 230.628,179.563 230.621,179.397 230.182 C 179.258 229.815,179.355 229.692,179.785 229.692 C 180.601 229.692,180.819 229.168,180.210 228.670 C 179.765 228.306,179.759 228.267,180.168 228.394 C 180.485 228.493,180.596 228.419,180.501 228.171 C 180.422 227.966,180.677 227.548,181.066 227.242 C 181.455 226.936,181.683 226.585,181.573 226.463 C 181.463 226.341,181.590 226.319,181.855 226.414 C 182.345 226.590,183.300 225.609,183.043 225.194 C 182.973 225.081,183.111 224.914,183.349 224.822 C 183.588 224.731,183.711 224.772,183.623 224.914 C 183.536 225.055,183.584 225.245,183.730 225.335 C 183.876 225.426,184.075 225.369,184.174 225.210 C 184.272 225.051,184.468 224.992,184.610 225.080 C 184.752 225.168,184.790 225.038,184.696 224.793 C 184.585 224.504,184.660 224.375,184.910 224.428 C 185.121 224.473,185.264 224.357,185.227 224.170 C 185.186 223.960,185.338 223.898,185.624 224.007 C 185.934 224.126,186.020 224.077,185.884 223.857 C 185.772 223.677,185.810 223.529,185.968 223.529 C 186.126 223.529,186.390 223.277,186.555 222.969 C 186.758 222.589,186.761 222.409,186.564 222.409 C 186.405 222.409,186.260 222.504,186.241 222.619 M295.031 225.123 C 295.292 225.384,295.599 225.503,295.714 225.388 C 295.828 225.274,295.737 225.062,295.510 224.919 C 294.828 224.488,294.525 224.617,295.031 225.123 M328.539 225.140 C 328.522 225.410,328.468 225.956,328.420 226.354 C 328.361 226.835,328.466 227.077,328.732 227.077 C 329.025 227.077,329.120 226.751,329.087 225.864 C 329.043 224.701,328.606 224.123,328.539 225.140 M294.405 226.742 C 294.051 227.168,294.130 229.717,294.490 229.494 C 294.619 229.415,294.645 229.039,294.549 228.657 C 294.425 228.161,294.470 228.023,294.710 228.171 C 294.922 228.302,294.971 228.259,294.843 228.053 C 294.731 227.870,294.835 227.653,295.080 227.559 C 295.321 227.467,295.518 227.229,295.518 227.031 C 295.518 226.500,294.768 226.305,294.405 226.742 M328.921 227.798 C 328.960 227.992,328.825 228.117,328.621 228.074 C 328.417 228.032,328.331 228.129,328.430 228.289 C 328.529 228.449,328.696 228.529,328.801 228.465 C 328.906 228.402,329.145 228.517,329.334 228.720 C 329.603 229.012,329.603 229.120,329.334 229.229 C 329.139 229.308,329.203 229.377,329.482 229.390 C 330.173 229.421,330.121 228.239,329.411 227.795 C 328.961 227.514,328.864 227.515,328.921 227.798 M59.010 228.758 C 58.748 229.021,58.777 229.972,59.048 229.972 C 59.171 229.972,59.272 229.657,59.272 229.272 C 59.272 228.494,59.273 228.496,59.010 228.758 M112.793 229.249 C 112.709 229.467,112.832 229.719,113.066 229.809 C 113.788 230.086,114.006 229.994,114.006 229.412 C 114.006 228.757,113.032 228.626,112.793 229.249 M59.733 229.575 C 59.924 229.765,70.641 229.732,70.833 229.541 C 70.904 229.470,68.399 229.412,65.266 229.412 C 62.134 229.412,59.644 229.485,59.733 229.575 M101.680 229.622 C 101.680 229.737,103.224 229.799,105.112 229.759 C 111.565 229.621,112.186 229.521,106.933 229.467 C 104.044 229.436,101.680 229.506,101.680 229.622 M71.314 230.306 C 71.380 230.662,71.364 230.808,71.278 230.632 C 71.192 230.456,70.907 230.368,70.645 230.436 C 70.232 230.544,70.111 279.288,70.523 279.435 C 70.859 279.555,71.373 279.408,71.260 279.225 C 71.180 279.097,71.313 278.992,71.554 278.992 C 72.126 278.992,72.093 229.960,71.521 229.769 C 71.312 229.700,71.237 229.896,71.314 230.306 M164.982 230.162 C 164.979 230.447,164.887 230.549,164.772 230.392 C 164.439 229.940,152.135 230.017,152.310 230.471 C 152.446 230.825,165.826 230.987,165.826 230.634 C 165.826 230.556,165.637 230.303,165.406 230.072 C 165.033 229.699,164.986 229.709,164.982 230.162 M329.692 230.252 C 329.692 230.560,329.557 230.812,329.392 230.812 C 329.227 230.812,329.290 231.010,329.532 231.253 C 329.774 231.495,329.972 231.978,329.972 232.326 C 329.972 232.703,330.143 232.960,330.392 232.960 C 330.972 232.960,330.918 232.319,330.285 231.685 C 329.934 231.334,329.804 230.912,329.897 230.425 C 329.974 230.022,329.960 229.692,329.865 229.692 C 329.770 229.692,329.692 229.944,329.692 230.252 M214.490 230.458 C 214.563 230.649,214.287 230.932,213.876 231.089 C 212.831 231.486,212.692 231.444,213.322 230.922 C 213.831 230.499,213.821 230.497,213.165 230.879 C 212.780 231.103,212.343 231.687,212.195 232.177 C 212.030 232.722,211.785 233.014,211.565 232.929 C 211.198 232.788,211.097 233.301,211.196 234.804 C 211.224 235.228,211.104 235.574,210.929 235.574 C 210.754 235.574,210.673 235.474,210.749 235.351 C 210.825 235.228,210.767 234.944,210.620 234.721 C 210.429 234.430,210.391 234.547,210.488 235.130 C 210.563 235.579,210.773 236.083,210.955 236.250 C 211.198 236.473,211.234 236.461,211.089 236.204 C 210.980 236.012,211.025 235.854,211.188 235.854 C 211.351 235.854,211.485 235.346,211.485 234.725 C 211.485 233.980,211.627 233.541,211.905 233.435 C 212.136 233.346,212.325 233.098,212.325 232.883 C 212.325 232.669,212.527 232.493,212.775 232.493 C 213.060 232.493,213.166 232.339,213.064 232.073 C 212.956 231.790,213.077 231.653,213.434 231.653 C 213.726 231.653,214.166 231.453,214.410 231.208 C 214.783 230.835,215.592 230.769,219.426 230.798 C 222.984 230.826,223.996 230.753,223.996 230.473 C 223.996 230.193,222.919 230.112,219.176 230.112 C 215.464 230.112,214.387 230.192,214.490 230.458 M225.280 230.158 C 224.731 230.379,224.870 230.812,225.490 230.812 C 225.801 230.812,226.050 230.626,226.050 230.392 C 226.050 229.961,225.890 229.912,225.280 230.158 M151.662 237.535 C 151.662 241.464,151.702 243.071,151.750 241.106 C 151.798 239.142,151.798 235.928,151.750 233.964 C 151.702 231.999,151.662 233.606,151.662 237.535 M101.530 255.228 C 101.539 274.842,101.470 279.726,101.190 279.494 C 100.935 279.282,100.840 279.326,100.840 279.658 C 100.840 279.908,101.061 280.112,101.331 280.112 C 101.806 280.112,101.951 255.874,101.599 235.294 C 101.556 232.752,101.525 241.723,101.530 255.228 M293.697 231.027 C 293.196 231.395,293.264 231.933,293.811 231.933 C 294.207 231.933,294.307 231.788,294.199 231.373 C 294.118 231.064,294.035 230.814,294.015 230.817 C 293.994 230.819,293.852 230.914,293.697 231.027 M178.012 231.327 C 178.076 231.391,177.925 231.837,177.677 232.318 C 177.237 233.168,177.240 233.181,177.757 232.773 C 179.141 231.681,179.391 231.097,178.443 231.169 C 178.142 231.191,177.948 231.262,178.012 231.327 M292.881 233.928 C 292.455 234.649,292.433 234.840,292.752 235.042 C 292.964 235.176,293.007 235.287,292.847 235.290 C 292.687 235.292,292.538 235.539,292.515 235.838 C 292.488 236.204,292.606 236.332,292.874 236.229 C 293.094 236.145,293.213 235.976,293.138 235.855 C 293.062 235.733,293.198 235.163,293.438 234.587 C 293.992 233.261,293.570 232.762,292.881 233.928 M329.960 235.168 C 329.656 235.535,329.694 235.627,330.206 235.761 C 330.743 235.902,330.962 236.354,330.839 237.066 C 330.816 237.193,330.928 237.217,331.085 237.119 C 331.250 237.017,331.371 237.217,331.368 237.589 C 331.365 238.097,331.308 238.147,331.103 237.823 C 330.960 237.597,330.767 237.487,330.674 237.580 C 330.581 237.673,330.732 237.976,331.009 238.255 C 331.494 238.743,331.516 238.728,331.603 237.828 C 331.658 237.269,331.545 236.799,331.323 236.658 C 331.044 236.481,331.038 236.422,331.303 236.419 C 331.495 236.416,331.653 236.281,331.653 236.118 C 331.653 235.955,331.507 235.911,331.329 236.021 C 331.125 236.148,331.082 236.098,331.213 235.885 C 331.687 235.120,330.543 234.466,329.960 235.168 M176.793 236.251 C 176.453 236.703,176.389 239.132,176.712 239.332 C 177.112 239.579,177.248 239.248,177.334 237.815 C 177.376 237.122,177.511 236.418,177.636 236.251 C 177.773 236.068,177.696 235.948,177.442 235.948 C 177.211 235.948,176.919 236.084,176.793 236.251 M292.802 237.526 C 292.617 238.021,292.347 238.353,292.201 238.263 C 292.055 238.172,291.866 238.279,291.782 238.499 C 291.697 238.719,291.779 238.961,291.963 239.035 C 292.211 239.137,292.207 239.177,291.947 239.194 C 291.754 239.206,291.601 239.436,291.606 239.706 C 291.614 240.154,291.649 240.151,292.017 239.665 C 292.238 239.372,292.358 239.034,292.283 238.913 C 292.209 238.793,292.412 238.508,292.735 238.282 C 293.104 238.024,293.289 237.638,293.230 237.248 C 293.148 236.698,293.098 236.731,292.802 237.526 M211.765 238.227 C 211.765 238.476,211.929 238.575,212.183 238.477 C 212.413 238.389,212.532 238.204,212.447 238.066 C 212.202 237.670,211.765 237.773,211.765 238.227 M212.744 238.657 C 212.474 239.094,212.340 240.047,212.552 240.017 C 212.658 240.002,212.840 240.020,212.955 240.058 C 213.320 240.176,213.715 240.265,214.038 240.301 C 214.212 240.321,214.284 240.593,214.200 240.912 C 214.079 241.378,214.124 241.427,214.437 241.167 C 214.766 240.895,214.754 240.730,214.360 240.100 C 213.663 238.986,212.940 238.340,212.744 238.657 M331.663 239.757 C 331.297 240.441,331.293 240.698,331.653 240.476 C 331.807 240.381,331.933 240.563,331.933 240.880 C 331.933 241.197,332.059 241.457,332.213 241.457 C 332.367 241.457,332.493 241.078,332.493 240.616 C 332.493 240.154,332.360 239.776,332.196 239.776 C 332.033 239.776,331.978 239.650,332.073 239.496 C 332.168 239.342,332.180 239.216,332.099 239.216 C 332.019 239.216,331.822 239.460,331.663 239.757 M291.475 241.877 C 291.374 242.416,291.171 242.857,291.024 242.857 C 290.635 242.857,290.696 244.081,291.106 244.523 C 291.387 244.825,291.387 244.861,291.106 244.702 C 290.874 244.571,290.756 244.705,290.756 245.098 C 290.756 245.424,290.645 245.622,290.508 245.538 C 290.371 245.453,290.196 245.627,290.119 245.923 C 290.038 246.234,290.143 246.526,290.367 246.612 C 290.581 246.694,290.766 246.671,290.778 246.560 C 290.863 245.756,291.056 245.260,291.456 244.819 C 291.885 244.344,291.884 244.290,291.445 244.044 C 290.977 243.782,291.282 242.577,291.817 242.577 C 291.927 242.577,292.017 242.199,292.017 241.737 C 292.017 240.594,291.700 240.676,291.475 241.877 M215.406 242.193 C 215.406 242.609,215.501 242.836,215.616 242.697 C 215.732 242.558,215.907 242.379,216.005 242.300 C 216.104 242.221,216.009 241.994,215.795 241.796 C 215.470 241.494,215.406 241.559,215.406 242.193 M177.361 242.877 C 177.411 243.381,177.629 243.853,177.846 243.924 C 178.117 244.013,178.185 243.910,178.065 243.596 C 177.949 243.294,178.036 243.137,178.317 243.137 C 178.552 243.137,178.661 243.003,178.560 242.838 C 178.458 242.673,178.192 242.609,177.968 242.695 C 177.745 242.781,177.634 242.735,177.721 242.593 C 177.809 242.452,177.743 242.251,177.576 242.147 C 177.374 242.023,177.302 242.269,177.361 242.877 M216.177 243.092 C 216.068 243.509,216.146 243.697,216.429 243.697 C 216.655 243.697,216.766 243.817,216.675 243.964 C 216.585 244.110,216.777 244.372,217.103 244.546 C 217.799 244.919,218.115 244.731,217.675 244.206 C 217.506 244.003,217.135 243.533,216.851 243.162 L 216.336 242.486 216.177 243.092 M332.319 244.140 C 332.338 244.820,332.432 245.377,332.529 245.378 C 332.816 245.379,333.232 244.705,333.175 244.328 C 333.147 244.135,333.107 243.802,333.088 243.587 C 332.988 242.468,332.286 242.971,332.319 244.140 M178.291 244.087 C 177.911 244.538,177.816 245.098,178.119 245.098 C 178.255 245.098,178.439 244.820,178.528 244.480 C 178.722 243.738,178.665 243.643,178.291 244.087 M164.918 244.730 C 165.111 244.805,165.186 245.013,165.083 245.192 C 164.980 245.371,164.999 245.425,165.125 245.311 C 165.850 244.655,166.107 245.825,166.151 249.964 C 166.176 252.295,166.237 253.824,166.286 253.361 C 166.448 251.851,166.530 244.818,166.387 244.786 C 165.860 244.667,164.634 244.620,164.918 244.730 M217.864 245.828 C 217.933 246.187,218.227 246.556,218.518 246.648 C 218.809 246.741,219.048 246.941,219.048 247.094 C 219.048 247.247,219.167 247.298,219.314 247.208 C 219.460 247.117,219.717 247.299,219.884 247.611 C 220.051 247.924,220.095 248.179,219.982 248.179 C 219.869 248.179,219.927 248.331,220.112 248.515 C 220.830 249.233,221.011 248.317,220.303 247.553 C 219.921 247.140,219.608 246.686,219.608 246.543 C 219.608 246.401,219.343 246.215,219.019 246.130 C 218.696 246.045,218.505 245.856,218.596 245.709 C 218.687 245.562,218.531 245.382,218.250 245.308 C 217.842 245.201,217.764 245.305,217.864 245.828 M178.151 245.624 C 178.151 245.797,178.277 245.938,178.431 245.938 C 178.585 245.938,178.711 246.257,178.711 246.647 C 178.711 247.037,178.901 247.429,179.132 247.518 C 179.363 247.606,179.552 247.847,179.552 248.053 C 179.552 248.259,179.835 248.626,180.182 248.869 C 180.529 249.112,180.781 249.403,180.742 249.515 C 180.596 249.941,182.997 252.409,183.281 252.125 C 183.612 251.794,182.994 250.898,182.601 251.140 C 182.465 251.224,182.344 251.066,182.332 250.787 C 182.298 249.951,182.072 248.924,181.885 248.757 C 181.789 248.670,181.774 248.862,181.853 249.183 C 181.938 249.528,181.859 249.767,181.662 249.767 C 181.462 249.767,181.379 249.501,181.455 249.101 C 181.525 248.735,181.472 248.468,181.337 248.507 C 180.881 248.640,179.832 247.767,179.832 247.255 C 179.832 246.922,179.953 246.819,180.182 246.956 C 180.417 247.097,180.405 247.009,180.145 246.689 C 179.861 246.339,179.661 246.291,179.397 246.511 C 179.115 246.745,179.070 246.670,179.195 246.164 C 179.283 245.809,179.253 245.612,179.129 245.726 C 179.005 245.840,178.734 245.793,178.527 245.622 C 178.251 245.392,178.151 245.393,178.151 245.624 M333.169 246.817 C 333.034 247.036,333.089 247.070,333.334 246.918 C 333.608 246.749,333.661 246.845,333.544 247.295 C 333.457 247.627,333.500 247.899,333.640 247.899 C 333.974 247.899,333.968 246.858,333.633 246.651 C 333.489 246.562,333.281 246.637,333.169 246.817 M289.944 247.698 C 289.970 248.556,289.983 248.565,290.196 247.899 C 290.319 247.514,290.433 247.356,290.448 247.549 C 290.464 247.742,290.598 247.899,290.748 247.899 C 291.138 247.899,290.788 247.131,290.314 246.949 C 290.018 246.835,289.923 247.027,289.944 247.698 M300.730 248.810 C 300.837 249.119,300.760 249.301,300.520 249.304 C 300.227 249.307,300.236 249.370,300.560 249.576 C 301.131 249.940,300.550 250.872,299.823 250.759 C 299.396 250.692,299.375 250.728,299.710 250.953 C 299.985 251.137,300.243 251.127,300.488 250.924 C 300.992 250.506,301.246 250.861,301.379 252.171 C 301.391 252.286,301.599 252.381,301.841 252.381 C 302.135 252.381,302.254 252.171,302.200 251.751 C 302.155 251.404,302.228 250.943,302.363 250.727 C 302.521 250.473,302.504 250.397,302.316 250.514 C 302.156 250.613,301.866 250.504,301.673 250.271 C 301.382 249.920,301.397 249.876,301.760 250.015 C 302.052 250.127,302.176 250.039,302.134 249.750 C 302.052 249.194,301.681 248.812,301.681 249.284 C 301.681 249.481,301.428 249.344,301.120 248.981 C 300.735 248.527,300.613 248.473,300.730 248.810 M289.916 249.176 C 289.916 249.416,289.804 249.544,289.667 249.459 C 289.530 249.375,289.366 249.661,289.302 250.096 C 289.228 250.603,289.312 250.887,289.536 250.887 C 289.728 250.887,289.867 250.813,289.845 250.724 C 289.746 250.321,290.262 249.308,290.493 249.450 C 290.634 249.538,290.675 249.413,290.583 249.174 C 290.367 248.611,289.916 248.612,289.916 249.176 M221.365 249.866 C 221.342 250.177,221.441 250.359,221.586 250.270 C 221.730 250.180,221.849 250.359,221.849 250.667 C 221.849 250.975,221.983 251.311,222.148 251.412 C 222.313 251.514,222.383 251.765,222.304 251.970 C 222.210 252.215,222.339 252.308,222.683 252.242 C 222.970 252.187,223.274 252.321,223.358 252.541 C 223.443 252.761,223.736 252.931,224.011 252.919 C 224.285 252.907,224.359 252.836,224.175 252.761 C 223.991 252.686,223.918 252.423,224.013 252.177 C 224.127 251.879,224.075 251.797,223.857 251.931 C 223.647 252.061,223.529 251.926,223.529 251.557 C 223.529 251.231,223.347 250.980,223.109 250.980 C 222.878 250.980,222.689 250.784,222.689 250.544 C 222.689 250.304,222.577 250.176,222.441 250.260 C 222.304 250.345,222.127 250.163,222.047 249.857 C 221.858 249.133,221.420 249.139,221.365 249.866 M333.828 250.481 C 333.926 250.855,333.873 251.001,333.684 250.884 C 333.496 250.768,333.440 250.906,333.531 251.257 C 333.616 251.579,333.812 251.734,333.995 251.624 C 334.174 251.517,334.154 251.630,333.950 251.882 C 333.705 252.184,333.682 252.391,333.880 252.513 C 334.041 252.612,334.174 252.820,334.174 252.974 C 334.174 253.128,334.059 253.184,333.920 253.097 C 333.780 253.011,333.732 253.193,333.812 253.501 C 333.893 253.809,334.060 254.062,334.183 254.062 C 334.551 254.062,334.676 253.396,334.406 252.871 C 334.265 252.598,334.262 252.381,334.399 252.381 C 334.899 252.381,334.725 250.549,334.193 250.217 C 333.741 249.935,333.694 249.968,333.828 250.481 M299.574 253.195 C 299.678 253.667,299.626 254.086,299.452 254.194 C 299.286 254.297,299.224 254.499,299.313 254.643 C 299.601 255.109,300.190 254.225,300.217 253.286 C 300.235 252.654,300.115 252.381,299.819 252.381 C 299.497 252.381,299.438 252.576,299.574 253.195 M301.961 254.465 C 301.961 255.912,302.050 256.303,302.381 256.303 C 302.612 256.303,302.801 256.169,302.801 256.006 C 302.801 255.843,302.677 255.786,302.524 255.880 C 302.366 255.978,302.318 255.866,302.414 255.618 C 302.505 255.380,302.724 255.269,302.900 255.372 C 303.077 255.475,302.985 255.289,302.697 254.960 C 302.361 254.577,302.221 254.103,302.309 253.645 C 302.384 253.250,302.337 252.860,302.203 252.778 C 302.070 252.695,301.961 253.455,301.961 254.465 M183.958 253.110 C 183.596 253.472,183.740 254.062,184.190 254.062 C 184.430 254.062,184.548 254.189,184.453 254.344 C 184.357 254.499,184.475 254.701,184.716 254.794 C 184.957 254.886,185.154 255.137,185.154 255.352 C 185.154 255.789,185.873 255.885,186.122 255.482 C 186.211 255.338,186.136 255.130,185.956 255.018 C 185.734 254.881,185.701 254.943,185.852 255.209 C 186.030 255.521,186.001 255.532,185.711 255.264 C 185.411 254.986,185.414 254.836,185.727 254.424 C 186.052 253.995,186.050 253.973,185.715 254.272 C 185.256 254.681,184.767 254.741,185.003 254.359 C 185.093 254.214,184.993 253.994,184.781 253.869 C 184.569 253.744,184.343 253.476,184.279 253.274 C 184.215 253.072,184.070 252.998,183.958 253.110 M288.852 253.277 C 288.667 253.462,288.515 254.134,288.515 254.771 C 288.515 255.408,288.428 256.017,288.321 256.124 C 287.890 256.555,288.026 257.143,288.557 257.143 C 288.860 257.143,289.034 257.263,288.943 257.411 C 288.852 257.558,288.572 257.600,288.320 257.503 C 288.015 257.386,287.930 257.436,288.066 257.655 C 288.181 257.842,288.110 257.985,287.902 257.987 C 287.636 257.991,287.651 258.065,287.955 258.257 C 288.265 258.453,288.541 258.330,289.006 257.789 C 289.681 257.003,289.756 256.844,289.426 256.896 C 288.832 256.990,288.395 256.841,288.697 256.648 C 288.873 256.535,289.062 256.127,289.117 255.742 C 289.171 255.357,289.373 254.875,289.566 254.672 C 289.999 254.214,290.019 253.782,289.606 253.782 C 289.435 253.782,289.368 253.592,289.457 253.361 C 289.651 252.857,289.318 252.811,288.852 253.277 M223.928 253.607 C 223.441 254.135,224.156 255.462,224.926 255.462 C 225.101 255.462,225.171 255.580,225.082 255.723 C 224.993 255.866,225.051 256.064,225.210 256.162 C 225.369 256.261,225.435 256.445,225.356 256.573 C 225.278 256.700,225.418 256.883,225.668 256.978 C 226.050 257.125,226.093 257.007,225.940 256.238 C 225.840 255.734,225.634 255.280,225.484 255.229 C 225.333 255.177,225.210 254.835,225.210 254.468 C 225.210 253.677,224.379 253.119,223.928 253.607 M165.406 254.808 C 164.951 255.173,164.938 255.226,165.336 255.088 C 166.056 254.840,165.934 255.157,165.196 255.453 C 164.573 255.704,164.574 255.707,165.280 255.725 C 166.050 255.744,166.667 255.291,166.667 254.706 C 166.667 254.214,166.089 254.261,165.406 254.808 M299.462 255.982 C 299.446 256.648,299.330 256.881,299.064 256.779 C 298.858 256.699,298.511 256.761,298.294 256.915 C 297.995 257.128,298.033 257.152,298.453 257.014 C 298.962 256.846,298.956 256.886,298.373 257.505 C 297.810 258.105,297.788 258.219,298.173 258.539 C 298.460 258.776,298.516 259.007,298.339 259.220 C 298.182 259.409,298.173 259.707,298.317 259.940 C 298.452 260.159,298.498 260.442,298.418 260.571 C 298.339 260.699,299.566 260.768,301.145 260.724 C 303.196 260.667,304.037 260.542,304.088 260.287 C 304.133 260.062,304.103 260.048,304.007 260.249 C 303.899 260.473,303.784 260.455,303.619 260.188 C 303.463 259.936,302.632 259.775,301.132 259.707 C 298.937 259.607,298.097 259.060,299.143 258.413 C 299.464 258.215,299.836 255.922,299.631 255.410 C 299.550 255.207,299.474 255.465,299.462 255.982 M334.458 255.358 C 334.465 255.732,334.835 256.155,335.224 256.232 C 335.426 256.273,335.565 256.036,335.552 255.672 C 335.540 255.326,335.465 255.205,335.385 255.404 C 335.273 255.682,335.148 255.690,334.847 255.440 C 334.631 255.260,334.456 255.223,334.458 255.358 M152.280 255.657 C 152.173 255.764,152.097 259.104,152.110 263.080 L 152.136 270.308 158.404 270.308 C 162.840 270.308,164.731 270.214,164.873 269.985 C 164.997 269.784,164.950 269.737,164.749 269.861 C 164.571 269.971,164.426 269.938,164.426 269.788 C 164.426 269.637,164.583 269.451,164.776 269.373 C 164.968 269.295,162.258 269.222,158.754 269.210 L 152.381 269.188 152.381 262.470 L 152.381 255.753 158.473 255.672 L 164.566 255.591 158.520 255.526 C 155.195 255.491,152.387 255.550,152.280 255.657 M185.994 256.329 C 185.994 256.446,186.305 256.786,186.685 257.085 C 187.065 257.384,187.296 257.708,187.199 257.806 C 187.101 257.903,187.169 257.983,187.348 257.983 C 187.528 257.983,187.675 258.186,187.675 258.433 C 187.675 258.718,187.829 258.824,188.095 258.722 C 188.382 258.612,188.515 258.738,188.515 259.121 C 188.515 259.429,188.704 259.754,188.936 259.843 C 189.167 259.931,189.356 260.159,189.356 260.348 C 189.356 260.536,189.882 261.248,190.526 261.928 C 191.169 262.609,191.705 263.291,191.716 263.445 C 191.727 263.599,191.861 263.725,192.012 263.725 C 192.164 263.725,192.250 263.505,192.205 263.235 C 192.159 262.966,192.256 262.745,192.419 262.745 C 192.873 262.745,192.774 262.267,192.282 262.078 C 192.043 261.986,191.919 262.027,192.007 262.169 C 192.094 262.310,192.044 262.502,191.895 262.594 C 191.581 262.788,191.074 261.932,191.193 261.408 C 191.238 261.211,191.210 261.180,191.132 261.338 C 190.903 261.799,190.553 261.669,190.395 261.064 C 190.314 260.756,190.381 260.504,190.543 260.504 C 190.705 260.504,190.498 260.189,190.082 259.804 C 189.667 259.419,189.207 259.104,189.061 259.104 C 188.915 259.104,188.796 258.970,188.796 258.807 C 188.796 258.644,188.908 258.580,189.046 258.665 C 189.184 258.751,189.369 258.632,189.458 258.402 C 189.619 257.982,189.223 257.844,188.134 257.941 C 187.776 257.973,187.664 257.856,187.776 257.565 C 187.865 257.333,187.819 257.143,187.675 257.143 C 187.531 257.143,187.484 256.922,187.570 256.653 C 187.692 256.273,187.666 256.250,187.453 256.548 C 187.175 256.938,186.432 256.728,186.678 256.330 C 186.751 256.212,186.627 256.116,186.402 256.116 C 186.178 256.116,185.994 256.212,185.994 256.329 M302.801 258.153 C 302.801 259.456,303.025 259.773,303.655 259.360 C 303.999 259.134,303.976 259.028,303.508 258.671 C 303.043 258.316,303.009 258.162,303.298 257.700 C 303.734 257.002,303.730 256.956,303.221 256.956 C 302.913 256.956,302.801 257.276,302.801 258.153 M335.402 257.703 C 335.443 258.088,335.606 258.718,335.765 259.104 C 335.924 259.489,336.125 259.993,336.212 260.224 C 336.299 260.455,336.380 260.123,336.392 259.485 C 336.407 258.725,336.227 258.097,335.871 257.664 L 335.327 257.003 335.402 257.703 M226.085 260.613 C 226.314 261.465,226.297 261.754,226.004 261.939 C 225.664 262.155,225.873 262.301,226.401 262.218 C 226.704 262.170,226.659 262.692,226.303 263.358 C 226.079 263.776,226.079 263.881,226.303 263.743 C 226.472 263.638,226.611 263.686,226.611 263.849 C 226.611 264.012,226.411 264.146,226.167 264.146 C 225.923 264.146,225.781 264.303,225.852 264.496 C 225.923 264.688,226.144 264.807,226.343 264.760 C 226.623 264.694,226.631 264.764,226.380 265.066 C 226.202 265.281,226.138 265.541,226.240 265.642 C 226.341 265.743,226.289 265.826,226.123 265.826 C 225.954 265.826,225.891 266.089,225.980 266.428 C 226.392 268.004,226.891 266.025,226.869 262.902 C 226.856 261.198,226.781 259.968,226.700 260.169 C 226.591 260.442,226.458 260.407,226.173 260.029 C 225.845 259.593,225.833 259.673,226.085 260.613 M287.144 260.609 C 286.789 261.037,286.817 264.750,287.174 264.530 C 287.295 264.454,287.395 264.534,287.395 264.706 C 287.395 264.878,287.540 264.929,287.718 264.820 C 287.952 264.675,287.933 264.536,287.647 264.313 C 287.155 263.927,286.974 261.745,287.412 261.474 C 287.640 261.333,287.675 261.470,287.530 261.940 C 287.418 262.306,287.421 262.514,287.539 262.403 C 287.832 262.125,287.961 260.224,287.686 260.224 C 287.564 260.224,287.320 260.397,287.144 260.609 M336.248 261.866 C 336.290 262.694,336.187 263.037,335.870 263.123 C 335.606 263.194,335.683 263.253,336.064 263.273 C 336.411 263.291,336.663 263.447,336.625 263.620 C 336.586 263.794,336.693 263.987,336.862 264.050 C 337.372 264.239,337.260 262.487,336.704 261.573 L 336.190 260.727 336.248 261.866 M336.806 265.242 C 336.786 265.831,336.886 266.015,337.168 265.907 C 337.390 265.822,337.523 265.908,337.476 266.107 C 337.432 266.299,337.558 266.516,337.757 266.589 C 338.026 266.687,338.070 266.515,337.929 265.924 C 337.559 264.379,336.851 263.949,336.806 265.242 M286.053 266.317 C 286.022 267.345,286.029 267.353,286.398 266.681 C 286.605 266.303,286.711 265.831,286.634 265.630 C 286.368 264.937,286.085 265.271,286.053 266.317 M191.611 266.597 C 191.702 267.490,191.601 267.787,191.206 267.787 C 190.637 267.787,190.444 268.532,190.913 268.921 C 191.241 269.194,191.317 269.152,191.317 268.696 C 191.317 268.051,191.958 267.412,192.297 267.720 C 192.423 267.834,192.449 267.711,192.354 267.446 C 192.259 267.181,192.304 266.889,192.454 266.796 C 192.822 266.569,192.506 266.106,191.983 266.106 C 191.749 266.106,191.584 266.325,191.611 266.597 M336.610 266.850 C 336.696 267.075,336.936 267.194,337.144 267.115 C 337.351 267.035,337.646 267.185,337.799 267.449 C 338.051 267.880,338.079 267.882,338.087 267.467 C 338.095 267.043,337.608 266.687,336.784 266.512 C 336.598 266.472,336.522 266.621,336.610 266.850 M225.576 267.407 C 225.392 267.482,225.319 267.745,225.413 267.991 C 225.521 268.271,225.472 268.369,225.284 268.253 C 225.092 268.134,225.036 268.270,225.129 268.627 C 225.209 268.935,225.400 269.188,225.553 269.188 C 225.705 269.188,225.758 268.999,225.669 268.768 C 225.580 268.536,225.622 268.347,225.762 268.347 C 225.901 268.347,225.997 268.095,225.973 267.787 C 225.950 267.479,225.927 267.237,225.921 267.249 C 225.915 267.261,225.760 267.332,225.576 267.407 M285.566 268.077 C 285.081 268.613,285.087 268.627,285.790 268.569 C 286.188 268.536,286.453 268.409,286.378 268.288 C 286.303 268.167,286.364 268.067,286.515 268.067 C 286.665 268.067,286.852 268.225,286.929 268.417 C 287.036 268.681,287.076 268.684,287.093 268.427 C 287.138 267.727,286.098 267.488,285.566 268.077 M337.631 268.537 C 337.531 268.818,337.386 269.162,337.308 269.301 C 337.231 269.440,337.310 269.467,337.484 269.360 C 337.810 269.158,338.277 270.404,338.136 271.099 C 338.095 271.303,338.199 271.637,338.368 271.840 C 338.596 272.114,338.559 272.325,338.225 272.659 C 337.978 272.907,337.890 273.109,338.030 273.109 C 338.171 273.109,338.432 273.431,338.612 273.825 C 338.791 274.219,339.063 274.464,339.217 274.369 C 339.580 274.145,339.579 272.633,339.216 272.409 C 339.062 272.314,338.936 271.984,338.936 271.676 C 338.936 271.309,338.815 271.184,338.585 271.313 C 338.322 271.462,338.314 271.426,338.552 271.167 C 338.951 270.734,338.724 268.936,338.205 268.417 C 337.870 268.082,337.787 268.099,337.631 268.537 M189.360 268.818 C 189.368 269.221,189.907 269.925,189.912 269.538 C 189.914 269.345,190.029 269.219,190.168 269.258 C 190.307 269.296,190.464 269.202,190.518 269.048 C 190.572 268.894,190.333 268.727,189.986 268.678 C 189.639 268.629,189.358 268.692,189.360 268.818 M285.193 270.158 C 285.232 270.916,285.079 271.641,284.785 272.091 C 284.166 273.035,284.153 274.510,284.764 274.510 C 285.056 274.510,285.155 274.357,285.047 274.075 C 284.952 273.826,284.998 273.713,285.157 273.812 C 285.310 273.906,285.434 273.710,285.434 273.376 C 285.434 272.985,285.567 272.820,285.808 272.913 C 286.323 273.110,286.300 272.244,285.774 271.639 C 285.459 271.277,285.441 271.148,285.705 271.148 C 285.965 271.148,285.981 271.050,285.764 270.789 C 285.332 270.268,285.539 269.386,286.113 269.302 C 286.954 269.179,286.884 268.994,285.986 268.969 C 285.150 268.945,285.132 268.973,285.193 270.158 M165.371 269.599 C 165.286 269.820,165.293 270.125,165.386 270.275 C 165.479 270.426,165.427 270.629,165.271 270.725 C 165.114 270.822,164.986 271.034,164.986 271.196 C 164.986 271.358,165.234 271.193,165.537 270.829 C 165.840 270.466,166.098 270.294,166.110 270.448 C 166.123 270.602,166.148 272.619,166.166 274.930 L 166.200 279.132 166.369 274.650 C 166.462 272.185,166.494 270.020,166.440 269.840 C 166.287 269.322,165.541 269.155,165.371 269.599 M178.245 269.628 C 178.166 269.833,178.183 270.133,178.283 270.295 C 178.383 270.456,178.362 270.588,178.238 270.588 C 178.113 270.589,178.011 272.606,178.011 275.072 C 178.011 277.538,178.051 279.435,178.099 279.289 C 178.148 279.143,178.337 279.081,178.519 279.151 C 178.770 279.248,178.817 278.329,178.711 275.424 C 178.594 272.193,178.641 271.501,179.003 271.148 C 179.240 270.917,179.378 270.758,179.311 270.794 C 179.177 270.865,178.455 269.986,178.440 269.735 C 178.423 269.433,179.755 269.615,180.188 269.974 C 180.719 270.416,188.985 270.401,189.259 269.958 C 189.640 269.342,188.402 269.182,183.522 269.218 C 179.531 269.247,178.356 269.338,178.245 269.628 M278.412 269.631 C 278.130 269.971,278.158 270.008,278.578 269.847 C 278.903 269.722,279.018 269.759,278.899 269.951 C 278.798 270.115,278.903 270.322,279.133 270.410 C 279.412 270.517,279.552 270.397,279.552 270.049 C 279.552 269.368,278.846 269.108,278.412 269.631 M224.261 269.682 C 224.582 269.894,224.366 270.926,224.009 270.889 C 223.475 270.834,223.425 270.900,223.810 271.148 C 224.164 271.378,224.149 271.421,223.714 271.424 C 223.430 271.427,222.877 271.681,222.485 271.989 C 222.094 272.297,221.912 272.549,222.082 272.549 C 222.252 272.549,222.322 272.730,222.237 272.952 C 222.152 273.173,221.917 273.290,221.714 273.213 C 221.272 273.043,220.883 273.559,221.272 273.799 C 221.422 273.892,221.473 274.152,221.387 274.377 C 221.301 274.602,221.097 274.705,220.936 274.605 C 220.774 274.505,220.724 274.556,220.823 274.717 C 220.923 274.879,220.810 275.086,220.572 275.178 C 220.324 275.273,220.212 275.225,220.310 275.067 C 220.404 274.915,220.214 274.790,219.888 274.790 C 219.562 274.790,219.373 274.916,219.468 275.070 C 219.563 275.224,219.458 275.350,219.235 275.350 C 219.011 275.350,218.748 275.670,218.650 276.062 C 218.551 276.453,218.349 276.698,218.199 276.606 C 218.050 276.513,217.927 276.571,217.927 276.734 C 217.927 276.897,217.777 276.999,217.594 276.961 C 217.410 276.922,217.212 277.111,217.153 277.381 C 217.086 277.686,217.213 277.871,217.486 277.871 C 217.729 277.871,217.927 277.745,217.927 277.591 C 217.927 277.437,218.071 277.311,218.246 277.311 C 218.422 277.311,218.709 277.115,218.884 276.875 C 219.060 276.635,219.452 276.398,219.756 276.348 C 220.059 276.297,220.277 276.115,220.238 275.943 C 220.200 275.771,220.287 275.630,220.433 275.630 C 220.989 275.630,222.764 273.737,222.543 273.380 C 222.396 273.141,222.434 273.092,222.660 273.231 C 223.095 273.500,224.370 272.145,224.370 271.414 C 224.370 271.114,224.543 270.868,224.755 270.868 C 224.979 270.868,225.140 270.576,225.140 270.168 C 225.140 269.639,224.994 269.469,224.545 269.472 C 224.194 269.475,224.078 269.561,224.261 269.682 M296.098 271.032 C 296.359 271.346,297.441 271.429,301.311 271.429 C 304.496 271.429,306.135 271.526,306.022 271.709 C 305.927 271.863,306.014 271.991,306.216 271.993 C 306.482 271.996,306.468 272.072,306.162 272.269 C 305.897 272.441,305.868 272.542,306.084 272.545 C 306.271 272.547,306.359 272.722,306.278 272.933 C 306.197 273.144,306.335 273.395,306.584 273.491 C 306.849 273.593,306.955 273.812,306.839 274.018 C 306.684 274.293,306.720 274.296,307.003 274.034 C 307.299 273.760,307.285 273.574,306.923 273.021 C 306.592 272.516,306.560 272.264,306.797 272.027 C 307.034 271.789,307.025 271.709,306.762 271.709 C 306.568 271.709,306.484 271.589,306.574 271.443 C 306.977 270.790,305.426 270.569,300.685 270.601 C 296.480 270.631,295.817 270.693,296.098 271.032 M295.754 271.639 C 295.571 272.519,295.649 273.392,295.905 273.307 C 296.289 273.179,296.447 271.429,296.075 271.429 C 295.923 271.429,295.779 271.523,295.754 271.639 M306.819 274.943 C 306.723 275.193,306.876 275.550,307.178 275.784 C 307.686 276.178,307.684 276.186,307.143 276.010 C 306.683 275.861,306.645 275.896,306.933 276.205 C 307.204 276.498,307.358 276.508,307.618 276.248 C 307.878 275.988,307.837 275.828,307.435 275.534 C 307.150 275.325,307.007 275.010,307.117 274.832 C 307.226 274.655,307.242 274.510,307.151 274.510 C 307.060 274.510,306.910 274.705,306.819 274.943 M284.031 275.213 C 283.841 275.443,283.750 275.630,283.830 275.630 C 283.909 275.630,283.876 276.066,283.756 276.598 C 283.610 277.247,283.643 277.601,283.856 277.673 C 284.077 277.748,284.054 277.925,283.779 278.258 C 283.443 278.665,283.442 278.785,283.775 279.073 C 283.989 279.260,284.073 279.297,283.961 279.157 C 283.850 279.018,283.881 278.756,284.030 278.575 C 284.305 278.244,284.535 277.317,284.573 276.384 C 284.584 276.105,284.708 275.948,284.848 276.034 C 284.988 276.121,285.035 275.937,284.954 275.626 C 284.752 274.855,284.443 274.716,284.031 275.213 M339.022 275.739 C 339.362 276.005,339.426 276.200,339.219 276.329 C 339.011 276.457,339.083 276.675,339.438 276.986 C 339.730 277.242,340.042 277.640,340.131 277.871 C 340.260 278.204,340.227 276.900,340.087 276.165 C 340.070 276.075,339.709 275.852,339.286 275.671 C 338.601 275.378,338.572 275.385,339.022 275.739 M294.912 276.261 C 294.385 277.219,294.348 277.871,294.820 277.871 C 295.050 277.871,295.243 277.840,295.249 277.801 C 295.608 275.424,295.540 275.116,294.912 276.261 M307.563 277.915 C 307.563 279.074,308.502 280.429,308.788 279.683 C 308.900 279.392,308.840 279.302,308.610 279.418 C 308.419 279.514,308.482 279.414,308.749 279.195 C 309.309 278.736,309.127 278.433,308.287 278.427 C 307.926 278.424,307.828 278.344,308.029 278.215 C 308.272 278.061,308.254 277.868,307.959 277.466 C 307.590 276.961,307.563 276.992,307.563 277.915 M215.571 278.049 C 215.487 278.267,215.132 278.560,214.782 278.700 C 214.153 278.953,214.154 278.956,214.873 278.974 C 215.886 278.999,217.064 278.004,216.269 277.796 C 215.948 277.712,215.660 277.817,215.571 278.049 M293.437 278.400 C 293.353 278.536,293.471 278.804,293.701 278.994 C 294.190 279.400,294.267 279.958,293.794 279.665 C 293.594 279.541,293.547 279.588,293.671 279.789 C 294.109 280.498,294.678 280.118,294.678 279.115 C 294.678 278.511,294.566 278.188,294.393 278.294 C 294.237 278.391,294.180 278.586,294.268 278.728 C 294.355 278.869,294.232 278.910,293.994 278.819 C 293.756 278.728,293.630 278.540,293.716 278.402 C 293.801 278.264,293.808 278.151,293.731 278.151 C 293.654 278.151,293.521 278.263,293.437 278.400 M212.806 278.910 C 212.457 279.259,212.205 279.285,211.506 279.041 C 210.694 278.758,210.658 278.773,210.932 279.285 C 211.093 279.586,211.290 279.832,211.371 279.832 C 211.452 279.832,211.440 279.706,211.345 279.552 C 211.249 279.398,211.305 279.272,211.468 279.272 C 211.631 279.272,211.765 279.387,211.765 279.527 C 211.765 279.741,212.345 279.748,212.885 279.541 C 212.962 279.511,213.203 279.470,213.421 279.449 C 213.966 279.398,214.118 278.814,213.634 278.629 C 213.417 278.546,213.044 278.672,212.806 278.910 M340.023 279.333 C 340.152 280.111,340.191 280.150,340.279 279.590 C 340.337 279.225,340.268 278.812,340.127 278.670 C 339.972 278.515,339.930 278.776,340.023 279.333 M165.826 279.692 C 165.826 279.923,166.015 280.112,166.246 280.112 C 166.478 280.112,166.667 279.923,166.667 279.692 C 166.667 279.461,166.478 279.272,166.246 279.272 C 166.015 279.272,165.826 279.461,165.826 279.692 " stroke="none" fill="#949cac" fill-rule="evenodd"></path><path id="path2" d="M339.776 8.403 C 339.776 13.072,339.876 15.686,340.056 15.686 C 340.236 15.686,340.336 13.072,340.336 8.403 C 340.336 3.735,340.236 1.120,340.056 1.120 C 339.876 1.120,339.776 3.735,339.776 8.403 M278.569 89.356 C 278.569 128.718,278.602 144.821,278.641 125.140 C 278.681 105.459,278.681 73.253,278.641 53.571 C 278.602 33.890,278.569 49.993,278.569 89.356 M185.131 84.711 C 184.799 85.042,185.174 161.664,185.506 161.542 C 185.698 161.472,185.791 161.241,185.714 161.029 C 185.637 160.818,185.544 143.576,185.506 122.714 C 185.442 86.823,185.418 84.423,185.131 84.711 M166.013 220.093 C 165.670 220.647,165.838 230.855,166.188 230.732 C 166.374 230.666,166.475 230.373,166.411 230.082 C 166.089 228.606,166.097 221.689,166.421 221.083 C 166.764 220.443,166.377 219.504,166.013 220.093 M267.159 220.354 C 267.352 220.432,267.426 220.643,267.324 220.822 C 267.221 221.002,267.240 221.055,267.366 220.941 C 267.492 220.827,267.785 220.890,268.017 221.081 C 268.385 221.384,268.396 221.348,268.103 220.798 C 267.919 220.452,267.551 220.178,267.287 220.190 C 266.992 220.204,266.943 220.267,267.159 220.354 M113.444 224.987 C 113.368 227.098,113.404 228.727,113.524 228.606 C 113.644 228.485,113.707 226.757,113.663 224.767 L 113.583 221.148 113.444 224.987 M267.641 245.238 C 267.641 258.487,267.675 263.867,267.717 257.192 C 267.759 250.517,267.759 239.677,267.717 233.102 C 267.675 226.528,267.641 231.989,267.641 245.238 M328.131 224.090 C 328.131 224.457,328.318 224.650,328.675 224.650 C 329.201 224.650,329.202 224.632,328.711 224.090 C 328.433 223.782,328.188 223.529,328.168 223.529 C 328.148 223.529,328.131 223.782,328.131 224.090 M225.487 227.674 L 225.623 229.552 225.712 227.900 C 225.761 226.992,225.699 226.147,225.575 226.022 C 225.452 225.898,225.412 226.641,225.487 227.674 M60.068 229.941 C 60.008 230.001,60.026 230.159,60.108 230.291 C 60.317 230.629,70.868 230.602,70.868 230.264 C 70.868 230.011,60.312 229.695,60.068 229.941 M107.073 229.908 C 103.982 229.954,101.961 230.093,101.961 230.258 C 101.961 230.703,112.465 230.618,112.837 230.171 C 113.062 229.899,113.018 229.812,112.661 229.820 C 112.399 229.827,109.884 229.866,107.073 229.908 M331.453 239.166 C 331.432 239.450,331.580 239.683,331.782 239.683 C 331.984 239.683,332.121 239.490,332.087 239.254 C 331.995 238.629,331.499 238.560,331.453 239.166 M214.437 241.158 C 214.325 241.340,214.438 241.380,214.737 241.266 C 215.063 241.141,215.153 241.187,215.015 241.409 C 214.904 241.589,214.957 241.737,215.133 241.737 C 215.522 241.737,215.353 241.112,214.924 240.969 C 214.755 240.913,214.536 240.998,214.437 241.158 M152.941 244.714 C 154.881 244.901,165.771 244.954,165.660 244.775 C 165.598 244.675,162.490 244.599,158.754 244.606 C 155.018 244.613,152.402 244.662,152.941 244.714 M165.878 250.053 C 165.850 252.240,165.921 254.087,166.036 254.159 C 166.152 254.231,166.213 253.073,166.172 251.585 C 166.035 246.593,165.930 246.049,165.878 250.053 M300.757 248.625 C 300.198 249.375,300.366 249.534,301.023 248.877 C 301.255 248.645,301.404 248.341,301.353 248.203 C 301.302 248.064,301.034 248.254,300.757 248.625 M289.076 251.401 C 289.076 251.659,289.318 251.808,289.706 251.788 C 290.186 251.764,290.218 251.725,289.843 251.627 C 289.571 251.556,289.421 251.382,289.509 251.239 C 289.597 251.097,289.535 250.980,289.372 250.980 C 289.209 250.980,289.076 251.169,289.076 251.401 M334.827 254.176 C 334.827 254.408,334.954 254.519,335.108 254.424 C 335.283 254.316,335.312 254.453,335.185 254.786 C 335.021 255.218,335.050 255.254,335.336 254.970 C 335.622 254.686,335.607 254.534,335.259 254.186 C 334.879 253.807,334.827 253.806,334.827 254.176 M152.101 255.339 C 152.101 255.579,151.979 255.700,151.830 255.608 C 151.660 255.503,151.530 258.032,151.480 262.451 C 151.421 267.660,151.486 269.495,151.733 269.589 C 151.983 269.685,152.071 268.014,152.091 262.829 C 152.106 259.041,152.185 255.834,152.266 255.702 C 152.347 255.570,155.180 255.462,158.560 255.462 C 162.470 255.462,164.706 255.360,164.706 255.182 C 164.706 255.004,162.418 254.902,158.403 254.902 C 152.882 254.902,152.101 254.956,152.101 255.339 M185.970 255.708 C 186.729 256.774,187.115 257.027,187.115 256.459 C 187.115 256.219,186.957 256.054,186.765 256.092 C 186.572 256.131,186.438 256.030,186.466 255.868 C 186.494 255.706,186.257 255.411,185.938 255.212 C 185.373 254.859,185.374 254.871,185.970 255.708 M286.321 264.338 C 285.868 265.185,285.913 265.388,286.437 264.863 C 286.681 264.620,286.828 264.265,286.764 264.074 C 286.693 263.860,286.523 263.961,286.321 264.338 M165.841 274.606 C 165.821 276.992,165.904 279.006,166.025 279.082 C 166.254 279.223,166.236 270.625,166.007 270.396 C 165.936 270.325,165.862 272.219,165.841 274.606 M177.983 274.930 C 177.984 277.241,178.027 278.149,178.080 276.948 C 178.132 275.747,178.132 273.856,178.079 272.746 C 178.026 271.636,177.983 272.619,177.983 274.930 M298.669 271.637 C 300.018 271.688,302.223 271.688,303.571 271.637 C 304.919 271.586,303.817 271.544,301.120 271.544 C 298.424 271.544,297.321 271.586,298.669 271.637 M278.821 275.350 C 278.821 277.430,278.865 278.281,278.919 277.241 C 278.973 276.201,278.973 274.499,278.919 273.459 C 278.865 272.419,278.821 273.270,278.821 275.350 M339.846 277.216 C 339.374 277.407,339.398 278.618,339.873 278.618 C 340.108 278.618,340.241 278.317,340.224 277.825 C 340.208 277.389,340.196 277.042,340.196 277.054 C 340.196 277.065,340.039 277.139,339.846 277.216 M70.312 279.482 C 70.310 279.828,70.434 280.112,70.588 280.112 C 70.939 280.112,70.939 279.815,70.588 279.272 C 70.369 278.932,70.316 278.972,70.312 279.482 " stroke="none" fill="#94a4b4" fill-rule="evenodd"></path></g></svg>